<svg width="29" height="29" viewBox="0 0 29 29" fill="none" xmlns="http://www.w3.org/2000/svg">
<g clip-path="url(#clip0_1250_4006)">
<path fill-rule="evenodd" clip-rule="evenodd" d="M14.595 0.545898C22.3052 0.545898 28.565 6.80541 28.565 14.5156C28.565 22.2258 22.3052 28.4856 14.595 28.4856C6.88476 28.4856 0.625244 22.2258 0.625244 14.5156C0.625244 6.80541 6.88476 0.545898 14.595 0.545898ZM18.411 10.667L18.4852 10.7622C18.522 10.8097 18.5579 10.8562 18.5897 10.8987C18.618 10.9553 18.6746 11.0119 18.7029 11.0969C18.7525 11.1714 18.7967 11.2455 18.84 11.32L18.8774 11.3834C18.9207 11.4579 18.9649 11.5324 19.0144 11.6066C19.0427 11.6915 19.0994 11.7765 19.1277 11.8614C19.241 12.088 19.3259 12.3145 19.3542 12.5694C19.3825 12.626 19.3825 12.6826 19.3825 12.711C19.4109 12.7676 19.4109 12.8525 19.4109 12.9375C19.4392 13.1923 19.4109 13.4189 19.3825 13.6737C19.3721 13.7162 19.3613 13.7547 19.3508 13.7921L19.3296 13.8669C19.3188 13.9042 19.3083 13.9428 19.2976 13.9852C19.2693 14.0702 19.241 14.1834 19.1843 14.2967C19.0994 14.4949 18.9861 14.6932 18.8728 14.8914C18.8445 14.948 18.7879 15.033 18.7312 15.1179C18.6746 15.2029 18.618 15.2595 18.5897 15.3445C18.533 15.4294 18.4481 15.5144 18.3914 15.5993C18.3348 15.6843 18.2782 15.7692 18.1932 15.8542C18.1083 15.9674 17.995 16.0807 17.91 16.194C17.8534 16.2506 17.7968 16.3356 17.7118 16.3922C17.6552 16.4488 17.5986 16.5338 17.5136 16.5904C17.4287 16.6754 17.3437 16.7603 17.2588 16.8169L17.0889 16.9585C17.0605 16.9868 17.0322 16.9868 17.0039 16.9868H15.7579V18.5726H17.3154C17.6552 18.5726 17.995 18.4593 18.2499 18.2328C18.3348 18.1479 18.7312 17.808 19.2126 17.2983C19.241 17.27 19.241 17.27 19.2693 17.27L23.5735 16.0241C23.7434 15.9391 23.8 15.9957 23.8 16.0807V16.9868C23.8 17.0435 23.7717 17.0718 23.7151 17.1001C23.4319 17.2134 22.4408 17.6665 22.0444 18.2328C20.9966 19.677 20.2037 21.7441 18.4481 21.7441H11.0573C8.45211 21.7441 6.32832 19.6203 6.32832 16.9868V16.9019C6.32832 16.8453 6.38496 16.7886 6.44159 16.7886H10.6042C10.6892 16.7886 10.7458 16.8736 10.7458 16.9302C10.7175 17.1851 10.7741 17.4682 10.8874 17.7231C11.1422 18.2328 11.652 18.516 12.19 18.516H14.2288V16.9302H12.2183C12.105 16.9302 12.0484 16.8169 12.105 16.732C12.1333 16.7037 12.1617 16.6754 12.19 16.6187C12.3882 16.3356 12.6431 15.9391 12.9262 15.4577C13.1244 15.1462 13.2943 14.7781 13.4359 14.4383C13.4643 14.3817 13.4926 14.325 13.5209 14.2401C13.5492 14.1268 13.6058 14.0135 13.6342 13.9286C13.6625 13.8436 13.6908 13.7587 13.7191 13.6737C13.7757 13.3906 13.8041 13.0791 13.8041 12.7393C13.8041 12.626 13.8041 12.4844 13.7757 12.3428C13.7757 12.2808 13.7704 12.2188 13.7641 12.1571L13.759 12.1038C13.7528 12.0418 13.7474 11.9801 13.7474 11.9181C13.7474 11.8048 13.7191 11.6632 13.6908 11.55C13.6625 11.3517 13.6342 11.1818 13.5775 10.9836L13.5492 10.927C13.5209 10.8137 13.4926 10.6721 13.4359 10.5589C13.3227 10.1624 13.1811 9.76597 13.0395 9.42616C12.9829 9.28458 12.9262 9.14299 12.8696 9.00141C12.7846 8.80319 12.6997 8.60497 12.6147 8.43506C12.5864 8.35011 12.5298 8.29348 12.5015 8.20853C12.4732 8.12357 12.4165 8.03862 12.3882 7.95367C12.3599 7.89704 12.3316 7.8404 12.3032 7.78377L12.0484 7.33069C12.0201 7.27406 12.0767 7.18911 12.1333 7.21742L13.6908 7.64218L13.889 7.69882L14.1155 7.75545L14.2005 7.78377V6.8493C14.2005 6.39623 14.5686 6.0281 14.9934 6.0281C15.2199 6.0281 15.4181 6.11305 15.5597 6.25464C15.7013 6.39623 15.7863 6.59445 15.7863 6.82098V8.18021L15.9562 8.23684C15.9562 8.23684 15.9845 8.23684 15.9845 8.26516C16.0128 8.29348 16.0694 8.35011 16.1544 8.40675C16.211 8.46338 16.2677 8.52001 16.3526 8.57665C16.4942 8.68992 16.6924 8.85982 16.8906 9.02972C16.9473 9.08636 17.0039 9.11468 17.0322 9.17131C17.2871 9.39785 17.5702 9.68102 17.8534 9.99251C17.9384 10.0775 17.995 10.1624 18.08 10.2474C18.1649 10.3323 18.2215 10.4456 18.3065 10.5305C18.3385 10.573 18.3742 10.6194 18.411 10.667ZM7.40438 15.0046L7.46101 14.9197L11.1422 9.17131C11.1989 9.08636 11.3121 9.08636 11.3688 9.19963C11.9918 10.5872 12.5015 12.2862 12.2749 13.3623C12.1617 13.8153 11.8785 14.41 11.5387 14.948C11.5104 15.033 11.4537 15.1179 11.3971 15.1746C11.3688 15.2029 11.3405 15.2312 11.2838 15.2312H7.48933C7.40438 15.2029 7.34774 15.0896 7.40438 15.0046Z" fill="#1F1F1F"/>
</g>
<defs>
<clipPath id="clip0_1250_4006">
<rect width="28" height="28" fill="white" transform="translate(0.573486 0.495544)"/>
</clipPath>
</defs>
</svg>
