<svg width="169" height="35" viewBox="0 0 169 35" fill="none" xmlns="http://www.w3.org/2000/svg">
<path d="M0 0H16.1503L20.0867 3.97319V12.9865L16.1135 16.9964H5.00328V25.7522H0V0ZM13.8694 12.8025L15.157 11.5149V5.48154L13.8694 4.19393H5.00328V12.8025H13.8694Z" fill="#FF00E7"/>
<path d="M22.8637 0H27.867V25.7522H22.8637V0Z" fill="#FF00E7"/>
<path d="M58.5028 0H62.9911L74.4692 17.4747H74.5428V0H79.3621V25.7522H74.8739L63.3958 8.31427H63.3222V25.7522H58.5028V0Z" fill="#FF00E7"/>
<path d="M83.0508 0H101.666V4.23071H88.054V10.7423H100.599V14.8995H88.054V21.5215H101.666V25.7522H83.0508V0Z" fill="#FF00E7"/>
<path d="M104.257 0H122.873V4.23071H109.261V10.7423H121.806V14.8995H109.261V21.5215H122.873V25.7522H104.257V0Z" fill="#FF00E7"/>
<path d="M145.698 17.2172V25.7522H140.695V18.3576L138.487 15.8928H130.468V25.7522H125.464V0H141.615L145.551 3.97319V11.7724L143.049 14.3109L145.698 17.2172ZM130.468 11.7724H139.334L140.621 10.4848V5.48154L139.334 4.19393H130.468V11.7724Z" fill="#FF00E7"/>
<path d="M148.634 21.779V18.1001H153.564V20.2706L154.778 21.4847H162.393L163.644 20.2339V15.9664L162.43 14.7523H152.681L148.708 10.7791V3.97319L152.681 0H164.306L168.279 3.97319V7.68886H163.35V5.48154L162.136 4.2675H154.851L153.637 5.48154V9.27078L154.851 10.4848H164.6L168.574 14.458V21.7054L164.527 25.7522H152.607L148.634 21.779Z" fill="#FF00E7"/>
<path fill-rule="evenodd" clip-rule="evenodd" d="M40.8542 0.167222C36.2606 1.01779 32.432 4.64467 31.0183 9.48453C30.7605 10.3672 30.6693 11.3183 30.6851 12.9531C30.711 15.59 31.2667 17.7246 32.4265 19.6418L33.1283 20.8017L37.025 18.4017L40.9218 16.002L40.9747 20.8762L41.0277 25.7505H42.9996H44.9715V20.9387C44.9715 17.5817 45.0371 16.1269 45.1884 16.1269C45.3075 16.1269 47.0544 17.1542 49.0704 18.4099C51.903 20.1743 52.8072 20.6471 53.0514 20.4915C53.3787 20.2831 54.9847 17.2125 54.8348 17.0819C54.7882 17.0413 52.1154 15.3748 48.8954 13.3786L43.0407 9.74928L39.0933 12.2215C36.9222 13.5811 35.0351 14.6936 34.8995 14.6936C34.714 14.6936 34.6726 14.1991 34.7316 12.6972C34.7992 10.9811 34.8984 10.5061 35.4379 9.31376C38.0676 3.50232 45.3585 2.48263 49.4787 7.34993C50.2705 8.28526 51.0324 9.99315 51.2928 11.4168C51.4032 12.0194 51.5148 12.5281 51.5413 12.5473C51.5678 12.5666 52.4338 13.103 53.466 13.7392L55.3427 14.8961L55.4043 13.2081C55.4887 10.8996 55.1746 9.39034 54.1574 7.21991C53.1001 4.96327 51.9372 3.56641 49.9951 2.22013C47.4221 0.436274 43.7973 -0.377844 40.8542 0.167222Z" fill="url(#paint0_linear_1250_3992)"/>
<path d="M33.668 26.9572H31.9633V27.7398C31.9781 27.8692 31.9637 28.0002 31.921 28.1235C31.8784 28.2469 31.8085 28.3596 31.7165 28.4539C31.6246 28.5481 31.5128 28.6216 31.3888 28.6692C31.2648 28.7168 31.1316 28.7375 30.9985 28.7297H30.6851V30.3554H31.7883V32.9614C31.7883 34.1718 32.578 34.9174 33.869 34.9174C34.2081 34.9333 34.5465 34.8748 34.8593 34.7462V33.2037C34.6949 33.2415 34.5269 33.262 34.358 33.2647C33.9444 33.2647 33.6684 33.1302 33.6684 32.6292V30.3554H34.8844V28.7297H33.6684L33.668 26.9572ZM38.5191 33.2772C38.3218 33.2772 38.1266 33.237 37.9462 33.159C37.7658 33.081 37.6042 32.9671 37.4717 32.8245C37.3395 32.6815 37.2394 32.5132 37.178 32.3302C37.1166 32.1472 37.0952 31.9538 37.1152 31.7623C37.1152 30.7354 37.8048 30.2586 38.5191 30.2586C39.2462 30.2586 39.923 30.7354 39.923 31.7623C39.923 32.7891 39.245 33.2791 38.5191 33.2791V33.2772ZM38.5191 28.5484C38.0822 28.5359 37.6473 28.6103 37.2409 28.767C36.8345 28.9238 36.4651 29.1596 36.1551 29.4601C35.8454 29.7609 35.6017 30.1201 35.439 30.5158C35.2763 30.9115 35.1979 31.3353 35.2087 31.7615C35.1978 32.1883 35.2759 32.6129 35.4384 33.0094C35.6009 33.4059 35.8443 33.766 36.154 34.0679C36.4636 34.3698 36.8329 34.6072 37.2394 34.7657C37.646 34.9242 38.0814 35.0004 38.5191 34.9897C38.9572 35.0014 39.3932 34.9258 39.8004 34.7675C40.2075 34.6092 40.5773 34.3715 40.887 34.0691C41.1967 33.7671 41.4399 33.4067 41.602 33.01C41.764 32.6132 41.8414 32.1884 41.8294 31.7615C41.8413 31.335 41.7636 30.9107 41.6013 30.5146C41.439 30.1184 41.1953 29.7588 40.8854 29.4578C40.5754 29.1566 40.2057 28.9204 39.7988 28.7636C39.3919 28.6069 38.9564 28.5328 38.5191 28.5461V28.5484ZM44.4618 34.805V31.3076C44.4529 31.1716 44.473 31.0352 44.5208 30.9072C44.5686 30.7791 44.643 30.6621 44.7394 30.5634C44.8359 30.4648 44.9522 30.3867 45.0811 30.334C45.21 30.2813 45.3487 30.2553 45.4884 30.2574C45.6268 30.2487 45.7654 30.2697 45.8946 30.3189C46.0237 30.3682 46.1402 30.4444 46.2358 30.5423C46.3314 30.6403 46.4038 30.7574 46.4479 30.8856C46.4921 31.0138 46.5068 31.1499 46.4911 31.2842V34.805H48.3712V31.2967C48.3638 31.1603 48.3854 31.024 48.4347 30.8962C48.4841 30.7684 48.5601 30.652 48.6579 30.5544C48.7557 30.4567 48.8733 30.3799 49.0031 30.3288C49.133 30.2777 49.2722 30.2534 49.4122 30.2574C49.5497 30.2501 49.6872 30.2721 49.815 30.322C49.9428 30.3718 50.058 30.4484 50.1523 30.5462C50.2466 30.644 50.3179 30.7607 50.3611 30.8882C50.4043 31.0157 50.4185 31.1509 50.4025 31.2842V34.805H52.2452V30.8688C52.2452 29.2186 51.1168 28.5461 49.9387 28.5461C49.559 28.5229 49.1799 28.5991 48.8405 28.7667C48.5011 28.9343 48.2138 29.1872 48.0083 29.4994C47.8273 29.1848 47.5573 28.9277 47.2306 28.7587C46.9039 28.5896 46.5342 28.5158 46.1656 28.5461C45.8161 28.541 45.4706 28.6185 45.1584 28.7718C44.8463 28.9251 44.5767 29.1498 44.3728 29.4266V28.7297H42.5553V34.805H44.4618ZM55.2544 28.7297H53.3479V34.805H55.2532L55.2544 28.7297ZM53.1848 26.8736C53.1848 27.1602 53.3006 27.4352 53.5071 27.6391C53.7136 27.8429 53.9942 27.9592 54.288 27.9627C54.4358 27.9638 54.5823 27.9365 54.7192 27.8822C54.8561 27.828 54.9807 27.7478 55.0857 27.6465C55.1905 27.5453 55.2738 27.4249 55.3308 27.2923C55.3878 27.1597 55.4174 27.0174 55.4179 26.8736C55.4174 26.7298 55.3878 26.5875 55.3308 26.4549C55.2738 26.3223 55.1905 26.202 55.0857 26.1008C54.9807 25.9994 54.8561 25.9193 54.7192 25.865C54.5823 25.8107 54.4358 25.7834 54.288 25.7846C53.9942 25.7881 53.7136 25.9043 53.5071 26.1082C53.3006 26.3121 53.1848 26.5871 53.1848 26.8736Z" fill="#FF00E7"/>
<defs>
<linearGradient id="paint0_linear_1250_3992" x1="46.156" y1="2.52658" x2="40.6013" y2="16.5424" gradientUnits="userSpaceOnUse">
<stop stop-color="#45E7F0"/>
<stop offset="1" stop-color="#FF00E7"/>
</linearGradient>
</defs>
</svg>
