<svg width="29" height="29" viewBox="0 0 29 29" fill="none" xmlns="http://www.w3.org/2000/svg">
<g clip-path="url(#clip0_1250_4016)">
<path fill-rule="evenodd" clip-rule="evenodd" d="M28.5735 14.4955C28.5735 22.2275 22.3055 28.4955 14.5735 28.4955C6.8415 28.4955 0.573486 22.2275 0.573486 14.4955C0.573486 6.76356 6.8415 0.495544 14.5735 0.495544C22.3055 0.495544 28.5735 6.76356 28.5735 14.4955ZM16.9633 8.12991C19.118 8.29398 20.9391 9.72132 20.9391 9.72132C20.9391 9.72132 22.9735 12.6744 23.3344 18.4713C21.2836 20.8393 18.1665 20.8557 18.1665 20.8557L17.5157 19.9862C18.6204 19.6033 19.8727 18.9143 20.9501 17.6729C19.6594 18.6518 17.718 19.6635 14.5844 19.6635C11.4508 19.6635 9.50396 18.6463 8.2188 17.6729C9.29615 18.9143 10.5485 19.6033 11.6532 19.9862L11.0024 20.8557C11.0024 20.8557 7.88521 20.8393 5.83443 18.4713C6.18443 12.6744 8.2188 9.72132 8.2188 9.72132C8.2188 9.72132 9.93599 8.34319 12.1946 8.12991L12.386 8.51819C10.6086 8.91741 9.54771 9.67757 8.61255 10.5143C10.2204 9.69398 11.8118 8.92288 14.579 8.92288C17.3461 8.92288 18.9376 9.69398 20.5454 10.5143C19.6102 9.67757 18.7188 8.99398 16.7719 8.51819L16.9633 8.12991ZM10.5922 15.2885C10.5922 16.169 11.2157 16.8799 11.9868 16.8799C12.7579 16.8799 13.3813 16.169 13.3813 15.2885C13.3813 14.408 12.7579 13.6971 11.9868 13.6971C11.2157 13.6971 10.5922 14.408 10.5922 15.2885ZM15.7657 15.2885C15.7657 16.169 16.3891 16.8799 17.1602 16.8799C17.9258 16.8799 18.5547 16.169 18.5547 15.2885C18.5547 14.408 17.9313 13.6971 17.1602 13.6971C16.3891 13.6971 15.7657 14.408 15.7657 15.2885Z" fill="#1F1F1F"/>
</g>
<defs>
<clipPath id="clip0_1250_4016">
<rect width="28" height="28" fill="white" transform="translate(0.573486 0.495544)"/>
</clipPath>
</defs>
</svg>
