<svg width="29" height="29" viewBox="0 0 29 29" fill="none" xmlns="http://www.w3.org/2000/svg">
<g clip-path="url(#clip0_1250_4014)">
<path fill-rule="evenodd" clip-rule="evenodd" d="M14.5735 0.495544C22.3003 0.495544 28.5735 6.76875 28.5735 14.4955C28.5735 22.2223 22.3003 28.4955 14.5735 28.4955C6.84669 28.4955 0.573486 22.2223 0.573486 14.4955C0.573486 6.76875 6.84669 0.495544 14.5735 0.495544ZM14.5735 5.74554C12.1972 5.74554 11.8992 5.75561 10.9659 5.79821C10.0345 5.8407 9.39846 5.98863 8.84185 6.20492C8.26649 6.42854 7.77851 6.72773 7.29206 7.21418C6.80562 7.70062 6.50642 8.1886 6.28281 8.76397C6.06652 9.32052 5.91864 9.95659 5.8761 10.8879C5.83355 11.8212 5.82349 12.1192 5.82349 14.4955C5.82349 16.8719 5.83355 17.1699 5.8761 18.1032C5.91864 19.0345 6.06652 19.6706 6.28281 20.2271C6.50642 20.8025 6.80562 21.2905 7.29206 21.777C7.77851 22.2634 8.26649 22.5626 8.84185 22.7862C9.39846 23.0025 10.0345 23.1504 10.9659 23.1929C11.8992 23.2355 12.1972 23.2455 14.5735 23.2455C16.9498 23.2455 17.2478 23.2355 18.1811 23.1929C19.1124 23.1504 19.7485 23.0025 20.3051 22.7862C20.8804 22.5626 21.3684 22.2634 21.8549 21.777C22.3414 21.2905 22.6405 20.8025 22.8642 20.2271C23.0804 19.6706 23.2283 19.0345 23.2708 18.1032C23.3134 17.1699 23.3235 16.8719 23.3235 14.4955C23.3235 12.1192 23.3134 11.8212 23.2708 10.8879C23.2283 9.95659 23.0804 9.32052 22.8642 8.76397C22.6405 8.1886 22.3414 7.70062 21.8549 7.21418C21.3684 6.72773 20.8804 6.42854 20.3051 6.20492C19.7485 5.98863 19.1124 5.8407 18.1811 5.79821C17.2478 5.75561 16.9498 5.74554 14.5735 5.74554ZM14.5735 7.32213C16.9098 7.32213 17.1866 7.33104 18.1093 7.37315C18.9624 7.41209 19.4256 7.55461 19.734 7.67443C20.1424 7.83313 20.4339 8.02279 20.74 8.32898C21.0463 8.63512 21.2359 8.92666 21.3946 9.33507C21.5144 9.6434 21.657 10.1067 21.6959 10.9598C21.738 11.8825 21.7469 12.1592 21.7469 14.4955C21.7469 16.8319 21.738 17.1086 21.6959 18.0313C21.657 18.8844 21.5144 19.3477 21.3946 19.656C21.2359 20.0645 21.0463 20.356 20.74 20.6621C20.4339 20.9684 20.1424 21.158 19.734 21.3167C19.4256 21.4365 18.9624 21.5791 18.1093 21.6179C17.1867 21.66 16.91 21.669 14.5735 21.669C12.237 21.669 11.9603 21.66 11.0377 21.6179C10.1846 21.5791 9.72134 21.4365 9.41301 21.3167C9.00455 21.158 8.71306 20.9684 8.40687 20.6621C8.10067 20.356 7.91107 20.0645 7.75237 19.656C7.63255 19.3477 7.48998 18.8844 7.45104 18.0313C7.40893 17.1086 7.40007 16.8319 7.40007 14.4955C7.40007 12.1592 7.40893 11.8825 7.45104 10.9598C7.48998 10.1067 7.63255 9.6434 7.75237 9.33507C7.91107 8.92666 8.10067 8.63512 8.40687 8.32898C8.71306 8.02279 9.00455 7.83313 9.41301 7.67443C9.72134 7.55461 10.1846 7.41209 11.0377 7.37315C11.9604 7.33104 12.2371 7.32213 14.5735 7.32213ZM14.5735 10.0023C12.0919 10.0023 10.0803 12.014 10.0803 14.4955C10.0803 16.9771 12.0919 18.9888 14.5735 18.9888C17.055 18.9888 19.0667 16.9771 19.0667 14.4955C19.0667 12.014 17.055 10.0023 14.5735 10.0023ZM14.5735 17.4122C12.9627 17.4122 11.6568 16.1064 11.6568 14.4955C11.6568 12.8847 12.9627 11.5789 14.5735 11.5789C16.1843 11.5789 17.4901 12.8847 17.4901 14.4955C17.4901 16.1064 16.1843 17.4122 14.5735 17.4122ZM20.2943 9.82479C20.2943 10.4047 19.8241 10.8747 19.2442 10.8747C18.6644 10.8747 18.1943 10.4047 18.1943 9.82479C18.1943 9.24489 18.6644 8.77479 19.2442 8.77479C19.8241 8.77479 20.2943 9.24489 20.2943 9.82479Z" fill="#1F1F1F"/>
</g>
<defs>
<clipPath id="clip0_1250_4014">
<rect width="28" height="28" fill="white" transform="translate(0.573486 0.495544)"/>
</clipPath>
</defs>
</svg>
