<svg width="40" height="40" viewBox="0 0 40 40" fill="none" xmlns="http://www.w3.org/2000/svg">
<rect width="40" height="40" rx="20" fill="#FDF4FD"/>
<path d="M15.8227 24L15.8227 22.362C15.9627 22.2687 16.1727 22.138 16.4527 21.97C16.7327 21.7927 17.0547 21.592 17.4187 21.368C17.7827 21.144 18.156 20.9107 18.5387 20.668C18.9214 20.4253 19.2854 20.192 19.6307 19.968C19.976 19.744 20.27 19.5433 20.5127 19.366C20.8207 19.1513 21.0307 18.96 21.1427 18.792C21.2547 18.624 21.3107 18.4467 21.3107 18.26L21.3107 18.064C21.3107 17.8773 21.2547 17.7467 21.1427 17.672C21.04 17.588 20.8347 17.546 20.5267 17.546L19.8267 17.546C18.912 17.546 18.1607 17.5787 17.5727 17.644C16.994 17.7 16.4574 17.7607 15.9627 17.826L15.8227 16.034C15.888 16.0153 16.1447 15.9733 16.5927 15.908C17.0407 15.8333 17.6287 15.768 18.3567 15.712C19.094 15.6467 19.9107 15.614 20.8067 15.614L20.9047 15.614C21.7074 15.614 22.3374 15.7073 22.7947 15.894C23.252 16.0713 23.574 16.3233 23.7607 16.65C23.9474 16.9767 24.0407 17.3593 24.0407 17.798L24.0407 18.092C24.0407 18.7453 23.8494 19.2773 23.4667 19.688C23.084 20.0987 22.594 20.4767 21.9967 20.822C21.53 21.0927 21.11 21.3213 20.7367 21.508C20.3727 21.6947 20.074 21.8533 19.8407 21.984L19.8407 22.096L24.4607 22.096L24.4607 24L15.8227 24Z" fill="#FF0083"/>
</svg>
