<svg width="91" height="35" viewBox="0 0 91 35" fill="none" xmlns="http://www.w3.org/2000/svg">
<path d="M6.3679 34.512V10.9695H0.162598V34.489H6.3679V34.512ZM47.4571 34.7444V28.9808C46.5507 28.9808 45.7838 28.9342 45.2261 28.8412C44.5753 28.7482 44.0873 28.5158 43.7619 28.1904C43.4365 27.865 43.2274 27.4003 43.1111 26.7728C43.0181 26.1918 42.9716 25.4249 42.9716 24.4952V16.2913H47.4569V10.9691H42.9716V1.81241H36.7663V24.5652C36.7663 26.4941 36.9289 28.1211 37.2543 29.4224C37.5797 30.7007 38.1374 31.7465 38.9043 32.5366C39.6712 33.3267 40.6939 33.8845 41.9257 34.2331C43.1807 34.5818 44.761 34.7444 46.6435 34.7444H47.4571ZM82.9686 34.512V0H76.7633V34.5122H82.9686V34.512ZM30.7938 13.2936C29.074 11.4342 26.6569 10.5048 23.5892 10.5048C22.1018 10.5048 20.7307 10.8069 19.5221 11.4112C18.2903 12.0155 17.2678 12.8521 16.4312 13.9211L16.1058 14.3626V13.9674V10.9693H9.99333V34.4888H16.1521V21.9621V22.822C16.1521 22.6824 16.1521 22.5431 16.1521 22.4035C16.2219 20.1958 16.7564 18.5688 17.7789 17.5231C18.8711 16.4075 20.196 15.8498 21.7064 15.8498C23.496 15.8498 24.8671 16.4075 25.7735 17.4765C26.6567 18.5455 27.1214 20.0562 27.1214 21.9851V22.0549V34.4886H33.373V21.1485C33.3967 17.8021 32.5135 15.1527 30.7938 13.2936ZM73.5563 22.7059C73.5563 21.0093 73.2541 19.4289 72.6731 17.9415C72.0688 16.4773 71.2322 15.1759 70.1864 14.0602C69.1174 12.9447 67.8391 12.0848 66.3517 11.4573C64.8643 10.8298 63.2143 10.5276 61.4247 10.5276C59.7282 10.5276 58.1245 10.853 56.6373 11.4805C55.1498 12.1313 53.8485 12.9912 52.756 14.0835C51.6638 15.1757 50.7806 16.4773 50.1531 17.9647C49.5023 19.4522 49.2002 21.0557 49.2002 22.7522C49.2002 24.4487 49.5023 26.0524 50.1066 27.5396C50.7108 29.0271 51.5707 30.3284 52.6397 31.4209C53.7087 32.5131 55.0336 33.3963 56.5673 34.0238C58.1012 34.6746 59.7978 35 61.6106 35C66.863 35 70.1167 32.6062 72.0688 30.3751L67.6066 26.9821C66.6769 28.0976 64.4459 29.6083 61.6571 29.6083C59.914 29.6083 58.4731 29.2131 57.3809 28.3997C56.2886 27.6096 55.5448 26.4941 55.1498 25.1228L55.0801 24.9136H73.5563V22.7059ZM55.1264 20.5444C55.1264 18.8246 57.1018 15.8265 61.3548 15.8033C65.6077 15.8033 67.6064 18.8014 67.6064 20.5212L55.1264 20.5444ZM90.0338 31.5372C89.9175 31.2583 89.7549 31.0259 89.5458 30.8166C89.3367 30.6075 89.1043 30.4447 88.8252 30.3286C88.5463 30.2123 88.2442 30.1428 87.9421 30.1428C87.6167 30.1428 87.3378 30.2125 87.0589 30.3286C86.78 30.4449 86.5477 30.6075 86.3384 30.8166C86.1291 31.0257 85.9665 31.2581 85.8504 31.5372C85.7341 31.8161 85.6645 32.1182 85.6645 32.4203C85.6645 32.7457 85.7343 33.0246 85.8504 33.3035C85.9667 33.5824 86.1293 33.8147 86.3384 34.024C86.5475 34.2331 86.7798 34.3959 87.0589 34.512C87.3378 34.6283 87.6399 34.6979 87.9421 34.6979C88.2675 34.6979 88.5463 34.6281 88.8252 34.512C89.1041 34.3957 89.3365 34.2331 89.5458 34.024C89.7551 33.8149 89.9177 33.5826 90.0338 33.3035C90.15 33.0246 90.2196 32.7225 90.2196 32.4203C90.2196 32.1182 90.1498 31.8161 90.0338 31.5372ZM89.6619 33.1641C89.5688 33.3965 89.4295 33.6056 89.2667 33.7684C89.1041 33.931 88.8948 34.0705 88.6624 34.1636C88.4301 34.2566 88.1977 34.3031 87.9188 34.3031C87.6632 34.3031 87.4076 34.2566 87.1752 34.1636C86.9428 34.0705 86.7337 33.9312 86.5709 33.7684C86.4083 33.6058 86.2688 33.3965 86.1758 33.1641C86.0827 32.9318 86.0362 32.6994 86.0362 32.4205C86.0362 32.1649 86.0827 31.9093 86.1758 31.6769C86.2688 31.4445 86.4081 31.2354 86.5709 31.0726C86.7337 30.9098 86.9428 30.7705 87.1752 30.6775C87.4076 30.5845 87.6399 30.5379 87.9188 30.5379C88.1744 30.5379 88.4301 30.5845 88.6624 30.6775C88.8948 30.7705 89.1039 30.9098 89.2667 31.0726C89.4293 31.2352 89.5688 31.4445 89.6619 31.6769C89.7549 31.9093 89.8014 32.1416 89.8014 32.4205C89.8014 32.6994 89.7549 32.9318 89.6619 33.1641ZM88.3603 32.6296C88.5461 32.6064 88.6857 32.5366 88.8018 32.4205C88.9178 32.3044 88.9876 32.1416 88.9876 31.9093C88.9876 31.6537 88.9178 31.4678 88.7553 31.3283C88.6157 31.1887 88.3601 31.1192 88.058 31.1192H87.0355V33.7453H87.5235V32.6763H87.8721L88.5229 33.7453H89.0341L88.3603 32.6296ZM88.1047 32.2345C88.0349 32.2345 87.9653 32.2345 87.8723 32.2345H87.5237V31.4909H87.8723C87.9421 31.4909 88.0118 31.4909 88.1047 31.4909C88.1744 31.4909 88.2442 31.5141 88.3138 31.5374C88.3833 31.5606 88.4301 31.6071 88.4533 31.6537C88.4998 31.7002 88.4998 31.7699 88.4998 31.8628C88.4998 31.9558 88.4766 32.0254 88.4533 32.0719C88.4068 32.1184 88.3603 32.1649 88.3138 32.1882C88.2442 32.2112 88.1744 32.2345 88.1047 32.2345Z" fill="#9F9F9F"/>
</svg>
