<svg width="194" height="30" viewBox="0 0 194 30" fill="none" xmlns="http://www.w3.org/2000/svg">
<path d="M0 0H18.5313L23.0481 4.55896V14.9011L18.4891 19.5022H5.74092V29.5488H0V0ZM15.9142 14.69L17.3916 13.2125V6.28968L15.9142 4.81224H5.74092V14.69H15.9142Z" fill="#FF00E7"/>
<path d="M26.2345 0H31.9754V29.5488H26.2345V0Z" fill="#FF00E7"/>
<path d="M67.1279 0H72.2779L85.4482 20.051H85.5326V0H91.0625V29.5488H85.9126L72.7422 9.54005H72.6578V29.5488H67.1279V0Z" fill="#FF00E7"/>
<path d="M95.295 0H116.655V4.85445H101.036V12.3261H115.43V17.0961H101.036V24.6944H116.655V29.5488H95.295V0Z" fill="#FF00E7"/>
<path d="M119.628 0H140.988V4.85445H125.369V12.3261H139.764V17.0961H125.369V24.6944H140.988V29.5488H119.628V0Z" fill="#FF00E7"/>
<path d="M167.178 19.7555V29.5488H161.438V21.0641L158.905 18.2358H149.702V29.5488H143.962V0H162.493L167.01 4.55896V13.508L164.139 16.4207L167.178 19.7555ZM149.702 13.508H159.876L161.353 12.0306V6.28968L159.876 4.81224H149.702V13.508Z" fill="#FF00E7"/>
<path d="M170.547 24.9899V20.7686H176.204V23.2591L177.597 24.6522H186.335L187.77 23.2169V18.3203L186.377 16.9273H175.191L170.632 12.3683V4.55896L175.191 0H188.53L193.089 4.55896V8.82244H187.432V6.28968L186.039 4.89666H177.681L176.288 6.28968V10.6376L177.681 12.0306H188.867L193.426 16.5896V24.9054L188.783 29.5488H175.106L170.547 24.9899Z" fill="#FF00E7"/>
</svg>
