<svg width="194" height="41" viewBox="0 0 194 41" fill="none" xmlns="http://www.w3.org/2000/svg">
<path d="M0 0H18.5313L23.0481 4.55896V14.9011L18.4891 19.5022H5.74092V29.5488H0V0ZM15.9142 14.69L17.3916 13.2125V6.28968L15.9142 4.81224H5.74092V14.69H15.9142Z" fill="#FF00E7"/>
<path d="M26.2345 0H31.9754V29.5488H26.2345V0Z" fill="#FF00E7"/>
<path d="M67.1279 0H72.2779L85.4482 20.051H85.5326V0H91.0625V29.5488H85.9126L72.7422 9.54005H72.6578V29.5488H67.1279V0Z" fill="#FF00E7"/>
<path d="M95.295 0H116.655V4.85445H101.036V12.3261H115.43V17.0961H101.036V24.6944H116.655V29.5488H95.295V0Z" fill="#FF00E7"/>
<path d="M119.628 0H140.988V4.85445H125.369V12.3261H139.764V17.0961H125.369V24.6944H140.988V29.5488H119.628V0Z" fill="#FF00E7"/>
<path d="M167.178 19.7555V29.5488H161.438V21.0641L158.905 18.2358H149.702V29.5488H143.962V0H162.493L167.01 4.55896V13.508L164.139 16.4207L167.178 19.7555ZM149.702 13.508H159.876L161.353 12.0306V6.28968L159.876 4.81224H149.702V13.508Z" fill="#FF00E7"/>
<path d="M170.547 24.9899V20.7686H176.204V23.2591L177.597 24.6522H186.335L187.77 23.2169V18.3203L186.377 16.9273H175.191L170.632 12.3683V4.55896L175.191 0H188.53L193.089 4.55896V8.82244H187.432V6.28968L186.039 4.89666H177.681L176.288 6.28968V10.6376L177.681 12.0306H188.867L193.426 16.5896V24.9054L188.783 29.5488H175.106L170.547 24.9899Z" fill="#FF00E7"/>
<path fill-rule="evenodd" clip-rule="evenodd" d="M46.8773 0.191875C41.6065 1.16784 37.2134 5.32943 35.5913 10.8828C35.2955 11.8957 35.1908 12.987 35.209 14.8628C35.2386 17.8884 35.8763 20.3378 37.2071 22.5376L38.0124 23.8685L42.4835 21.1147L46.9548 18.3612L47.0156 23.954L47.0763 29.5469H49.339H51.6016V24.0257C51.6016 20.1738 51.6769 18.5045 51.8505 18.5045C51.9872 18.5045 53.9916 19.6832 56.3048 21.1241C59.5551 23.1486 60.5925 23.6911 60.8727 23.5126C61.2483 23.2734 63.0911 19.7502 62.9191 19.6003C62.8656 19.5537 59.7987 17.6415 56.104 15.351L49.3861 11.1866L44.8568 14.0234C42.3657 15.5834 40.2003 16.8599 40.0448 16.8599C39.8319 16.8599 39.7843 16.2925 39.8521 14.5691C39.9296 12.6001 40.0434 12.055 40.6624 10.6869C43.6799 4.01867 52.0457 2.84864 56.7733 8.43353C57.6818 9.50676 58.5561 11.4664 58.8549 13.1C58.9816 13.7915 59.1097 14.3751 59.14 14.3972C59.1704 14.4192 60.1641 15.0348 61.3485 15.7648L63.5019 17.0922L63.5726 15.1553C63.6694 12.5066 63.309 10.7748 62.1418 8.28434C60.9287 5.69501 59.5943 4.09221 57.3659 2.54744C54.4135 0.500594 50.2543 -0.43355 46.8773 0.191875Z" fill="url(#paint0_linear_1236_642)"/>
<path d="M38.6316 30.9316H36.6756V31.8295C36.6926 31.978 36.676 32.1283 36.6271 32.2698C36.5781 32.4114 36.498 32.5408 36.3924 32.6489C36.287 32.757 36.1587 32.8413 36.0164 32.8959C35.8741 32.9506 35.7213 32.9743 35.5686 32.9653H35.2089V34.8308H36.4747V37.8209C36.4747 39.2097 37.3809 40.0653 38.8623 40.0653C39.2513 40.0836 39.6397 40.0165 39.9986 39.8689V38.0989C39.81 38.1424 39.6171 38.1659 39.4233 38.169C38.9488 38.169 38.6321 38.0146 38.6321 37.4398V34.8308H40.0274V32.9653H38.6321L38.6316 30.9316ZM44.1979 38.1833C43.9715 38.1833 43.7476 38.1372 43.5406 38.0477C43.3336 37.9582 43.1481 37.8274 42.9961 37.6638C42.8444 37.4998 42.7296 37.3066 42.6591 37.0967C42.5887 36.8868 42.5641 36.6648 42.587 36.445C42.587 35.2668 43.3783 34.7197 44.1979 34.7197C45.0322 34.7197 45.8088 35.2668 45.8088 36.445C45.8088 37.6232 45.0308 38.1855 44.1979 38.1855V38.1833ZM44.1979 32.7574C43.6966 32.743 43.1976 32.8283 42.7313 33.0082C42.265 33.188 41.8411 33.4586 41.4855 33.8034C41.13 34.1486 40.8505 34.5608 40.6637 35.0148C40.477 35.4688 40.3871 35.9551 40.3995 36.4441C40.3869 36.9339 40.4766 37.421 40.663 37.876C40.8495 38.3309 41.1288 38.7442 41.4841 39.0906C41.8393 39.437 42.2631 39.7094 42.7296 39.8912C43.1961 40.0731 43.6957 40.1605 44.1979 40.1483C44.7006 40.1617 45.2009 40.0749 45.6681 39.8933C46.1353 39.7117 46.5595 39.439 46.9149 39.0919C47.2702 38.7454 47.5494 38.3319 47.7353 37.8767C47.9213 37.4214 48.0101 36.934 47.9963 36.4441C48.0099 35.9548 47.9208 35.4679 47.7345 35.0134C47.5483 34.5588 47.2687 34.1462 46.9131 33.8008C46.5574 33.4552 46.1332 33.1842 45.6663 33.0043C45.1993 32.8244 44.6997 32.7395 44.1979 32.7547V32.7574ZM51.0167 39.9363V35.9233C51.0066 35.7672 51.0296 35.6108 51.0844 35.4639C51.1393 35.3169 51.2247 35.1826 51.3353 35.0694C51.446 34.9563 51.5795 34.8666 51.7274 34.8062C51.8753 34.7458 52.0344 34.7159 52.1947 34.7183C52.3535 34.7083 52.5126 34.7324 52.6607 34.7889C52.8089 34.8454 52.9426 34.9329 53.0523 35.0452C53.162 35.1576 53.2451 35.2921 53.2957 35.4392C53.3463 35.5862 53.3632 35.7424 53.3452 35.8965V39.9363H55.5025V35.9108C55.494 35.7544 55.5188 35.5979 55.5754 35.4513C55.6321 35.3047 55.7193 35.1711 55.8315 35.059C55.9438 34.947 56.0786 34.8588 56.2276 34.8002C56.3766 34.7415 56.5364 34.7137 56.697 34.7183C56.8547 34.7099 57.0125 34.7351 57.1592 34.7924C57.3059 34.8496 57.438 34.9374 57.5462 35.0496C57.6544 35.1619 57.7362 35.2958 57.7858 35.4421C57.8354 35.5884 57.8516 35.7435 57.8333 35.8965V39.9363H59.9476V35.4199C59.9476 33.5263 58.6529 32.7547 57.3011 32.7547C56.8654 32.7281 56.4304 32.8155 56.041 33.0078C55.6516 33.2001 55.3219 33.4904 55.0861 33.8485C54.8784 33.4876 54.5687 33.1926 54.1938 32.9986C53.8189 32.8047 53.3947 32.72 52.9718 32.7547C52.5708 32.7489 52.1743 32.8377 51.8161 33.0137C51.4579 33.1896 51.1486 33.4474 50.9147 33.7651V32.9653H48.8292V39.9363H51.0167ZM63.4005 32.9653H61.213V39.9363H63.3991L63.4005 32.9653ZM61.0258 30.8356C61.0258 31.1644 61.1587 31.48 61.3956 31.7139C61.6326 31.9478 61.9545 32.0813 62.2917 32.0852C62.4612 32.0866 62.6294 32.0552 62.7865 31.993C62.9435 31.9307 63.0864 31.8388 63.2069 31.7224C63.3272 31.6063 63.4227 31.4682 63.4882 31.3161C63.5536 31.1639 63.5876 31.0006 63.5882 30.8356C63.5876 30.6706 63.5536 30.5074 63.4882 30.3552C63.4227 30.203 63.3272 30.065 63.2069 29.9489C63.0864 29.8325 62.9435 29.7406 62.7865 29.6783C62.6294 29.6161 62.4612 29.5847 62.2917 29.586C61.9545 29.59 61.6326 29.7235 61.3956 29.9574C61.1587 30.1913 61.0258 30.5068 61.0258 30.8356Z" fill="#FF00E7"/>
<defs>
<linearGradient id="paint0_linear_1236_642" x1="52.9607" y1="2.89908" x2="46.5871" y2="18.9812" gradientUnits="userSpaceOnUse">
<stop stop-color="#45E7F0"/>
<stop offset="1" stop-color="#FF00E7"/>
</linearGradient>
</defs>
</svg>
