<svg width="60" height="53" viewBox="0 0 60 53" fill="none" xmlns="http://www.w3.org/2000/svg">
<path fill-rule="evenodd" clip-rule="evenodd" d="M17.6125 48.0667L25.241 50.0907V47.444L25.8637 46.8213H30.2228V49.9349V52.1144H25.5524L19.7921 49.6235L17.6125 48.0667Z" fill="#CDBDB2"/>
<path fill-rule="evenodd" clip-rule="evenodd" d="M42.5217 48.0667L35.0491 50.0907V47.444L34.4264 46.8213H30.0673V49.9349V52.1144H34.7377L40.4977 49.6235L42.5217 48.0667Z" fill="#CDBDB2"/>
<path fill-rule="evenodd" clip-rule="evenodd" d="M25.8636 42.3215L25.2408 47.4588L26.0191 46.8361H34.1145L35.0485 47.4588L34.4258 42.3215L33.1804 41.543L26.9532 41.6988L25.8636 42.3215Z" fill="#393939"/>
<path fill-rule="evenodd" clip-rule="evenodd" d="M21.6611 7.60449L25.3974 16.3226L27.1101 41.6985H33.1814L35.0496 16.3226L38.4745 7.60449H21.6611Z" fill="#F89C35"/>
<path fill-rule="evenodd" clip-rule="evenodd" d="M5.31399 26.7397L0.954956 39.3497L11.8525 38.7269H18.858V33.2783L18.5466 22.0693L16.9898 23.3148L5.31399 26.7397Z" fill="#F89D35"/>
<path fill-rule="evenodd" clip-rule="evenodd" d="M13.564 28.1562L26.3297 28.4676L24.9287 35.0062L18.8571 33.4494L13.564 28.1562Z" fill="#D87C30"/>
<path fill-rule="evenodd" clip-rule="evenodd" d="M13.564 28.3135L18.8571 33.2952V38.277L13.564 28.3135Z" fill="#EA8D3A"/>
<path fill-rule="evenodd" clip-rule="evenodd" d="M18.8591 33.4346L25.0863 34.9914L27.1103 41.6857L25.7091 42.464L18.8591 38.4163V33.4346Z" fill="#F89D35"/>
<path fill-rule="evenodd" clip-rule="evenodd" d="M18.858 38.4209L17.6125 48.073L25.8637 42.313L18.858 38.4209Z" fill="#EB8F35"/>
<path fill-rule="evenodd" clip-rule="evenodd" d="M26.3316 28.4482L27.1101 41.6812L24.7748 34.909L26.3316 28.4482Z" fill="#EA8E3A"/>
<path fill-rule="evenodd" clip-rule="evenodd" d="M11.6969 38.5767L18.8582 38.4209L17.6127 48.073L11.6969 38.5767Z" fill="#D87C30"/>
<path fill-rule="evenodd" clip-rule="evenodd" d="M4.37991 52.278L17.6126 48.0745L11.6967 38.5781L0.954956 39.3564L4.37991 52.278Z" fill="#EB8F35"/>
<path fill-rule="evenodd" clip-rule="evenodd" d="M25.3956 16.3193L18.7015 21.9238L13.564 28.151L26.3297 28.6182L25.3956 16.3193Z" fill="#E8821E"/>
<path fill-rule="evenodd" clip-rule="evenodd" d="M17.6125 48.0667L25.8637 42.3066L25.241 47.2884V50.0906L19.6365 49.0007L17.6125 48.0667Z" fill="#DFCEC3"/>
<path fill-rule="evenodd" clip-rule="evenodd" d="M42.5217 48.0667L34.4264 42.3066L35.0491 47.2884V50.0906L40.6536 49.0007L42.5217 48.0667Z" fill="#DFCEC3"/>
<path fill-rule="evenodd" clip-rule="evenodd" d="M22.9049 31.2559L24.6176 34.8366L18.5459 33.2798L22.9049 31.2559Z" fill="#393939"/>
<path fill-rule="evenodd" clip-rule="evenodd" d="M4.22302 0.282227L25.3955 16.3171L21.815 7.59904L4.22302 0.282227Z" fill="#E88F35"/>
<path fill-rule="evenodd" clip-rule="evenodd" d="M4.22326 0.282227L1.42102 8.84462L2.97782 18.1854L1.88806 18.8081L3.44486 20.2092L2.19942 21.299L3.9119 22.8558L2.82214 23.7899L5.31302 26.9035L16.989 23.3228C22.6973 18.7562 25.4995 16.421 25.3957 16.3173C25.2919 16.2135 18.2344 10.8685 4.22326 0.282227Z" fill="#8E5A30"/>
<path fill-rule="evenodd" clip-rule="evenodd" d="M54.82 26.7397L59.1791 39.3497L48.2815 38.727H41.276V33.2783L41.5874 22.0693L43.1442 23.3148L54.82 26.7397Z" fill="#F89D35"/>
<path fill-rule="evenodd" clip-rule="evenodd" d="M46.5701 28.1562L33.8043 28.4676L35.2053 35.0062L41.277 33.4494L46.5701 28.1562Z" fill="#D87C30"/>
<path fill-rule="evenodd" clip-rule="evenodd" d="M46.5701 28.3135L41.277 33.2952V38.277L46.5701 28.3135Z" fill="#EA8D3A"/>
<path fill-rule="evenodd" clip-rule="evenodd" d="M41.2749 33.4346L35.0477 34.9914L33.0237 41.6857L34.425 42.464L41.2749 38.4163V33.4346Z" fill="#F89D35"/>
<path fill-rule="evenodd" clip-rule="evenodd" d="M41.276 38.4209L42.5215 48.0731L34.4261 42.4686L41.276 38.4209Z" fill="#EB8F35"/>
<path fill-rule="evenodd" clip-rule="evenodd" d="M33.8025 28.4482L33.0239 41.6812L35.3593 34.909L33.8025 28.4482Z" fill="#EA8E3A"/>
<path fill-rule="evenodd" clip-rule="evenodd" d="M48.4371 38.5767L41.2759 38.4209L42.5213 48.0731L48.4371 38.5767Z" fill="#D87C30"/>
<path fill-rule="evenodd" clip-rule="evenodd" d="M55.7541 52.278L42.5215 48.0745L48.4373 38.5781L59.1791 39.3564L55.7541 52.278Z" fill="#EB8F35"/>
<path fill-rule="evenodd" clip-rule="evenodd" d="M34.7384 16.3193L41.4325 21.9238L46.5701 28.151L33.8043 28.6182L34.7384 16.3193Z" fill="#E8821E"/>
<path fill-rule="evenodd" clip-rule="evenodd" d="M37.2291 31.2559L35.5165 34.8366L41.5881 33.2798L37.2291 31.2559Z" fill="#393939"/>
<path fill-rule="evenodd" clip-rule="evenodd" d="M55.911 0.282227L34.7385 16.3171L38.319 7.59904L55.911 0.282227Z" fill="#E88F35"/>
<path fill-rule="evenodd" clip-rule="evenodd" d="M55.9108 0.282227L58.713 8.84462L57.1562 18.1854L58.246 18.8081L56.6892 20.2092L57.9346 21.299L56.2221 22.8558L57.3119 23.7899L54.821 26.9035L43.145 23.3228C37.4368 18.7562 34.6345 16.421 34.7383 16.3173C34.8421 16.2135 41.8996 10.8685 55.9108 0.282227Z" fill="#8E5A30"/>
</svg>
