<svg width="191" height="35" viewBox="0 0 191 35" fill="none" xmlns="http://www.w3.org/2000/svg">
<path d="M188.299 28.0721V27.5407H188.622C188.793 27.5407 189.059 27.5597 189.059 27.7684C189.059 27.9962 188.926 28.0531 188.717 28.0531H188.299V28.0721ZM188.299 28.4328H188.527L189.059 29.3438H189.628L189.04 28.3948C189.324 28.3758 189.59 28.243 189.59 27.8254C189.59 27.3129 189.248 27.1611 188.66 27.1611H187.825V29.3438H188.318L188.299 28.4328ZM190.748 28.2619C190.748 26.9713 189.761 26.231 188.641 26.231C187.54 26.231 186.534 26.9713 186.534 28.2619C186.534 29.5526 187.521 30.2928 188.641 30.2928C189.761 30.2928 190.748 29.5526 190.748 28.2619ZM190.141 28.2619C190.141 29.192 189.457 29.8183 188.641 29.8183C187.806 29.8183 187.142 29.192 187.142 28.2619C187.142 27.3319 187.825 26.7055 188.641 26.7055C189.457 26.7245 190.141 27.3509 190.141 28.2619ZM113.536 6.62419V29.6095H120.027V6.62419H113.536ZM62.5161 6.58623V29.5906H69.0643V11.7299L74.1701 11.7489C75.8404 11.7489 77.0172 12.1665 77.8143 13.0206C78.8393 14.1025 79.2568 15.8867 79.2568 19.0944V29.5906H85.5963V16.8926C85.5963 7.81996 79.8073 6.58623 74.1701 6.58623H62.5161ZM123.994 6.62419V29.6095H134.509C140.108 29.6095 141.949 28.6795 143.923 26.5917C145.328 25.1302 146.22 21.9035 146.22 18.3731C146.22 15.1464 145.461 12.2614 144.113 10.4582C141.74 7.25054 138.267 6.62419 133.085 6.62419H123.994ZM130.428 11.6161H133.218C137.261 11.6161 139.88 13.4192 139.88 18.1453C139.88 22.8525 137.28 24.6746 133.218 24.6746H130.428V11.6161ZM104.197 6.62419L98.7877 24.8265L93.6061 6.62419H86.6023L94.0046 29.6095H103.343L110.802 6.62419H104.197ZM149.257 29.5906H155.748V6.62419H149.257V29.5906ZM167.44 6.62419L158.386 29.5906H164.783L166.225 25.5477H176.949L178.316 29.5906H185.263L176.114 6.62419H167.44ZM171.654 10.8189L175.583 21.5618H167.592L171.654 10.8189ZM20.6642 10.4393V7.2885C20.9679 7.26952 21.2906 7.25054 21.5943 7.25054C30.2493 6.98482 35.9055 14.6719 35.9055 14.6719C35.9055 14.6719 29.7938 23.1752 23.2266 23.1752C22.2776 23.1752 21.4424 23.0233 20.6832 22.7576V13.1725C24.0427 13.59 24.726 15.0705 26.7569 18.43L31.2553 14.6339C31.2553 14.6339 27.9717 10.3254 22.4294 10.3254C21.822 10.3444 21.2336 10.3823 20.6642 10.4393ZM20.6642 0V4.70716C20.9679 4.68818 21.2906 4.6692 21.5943 4.65022C33.6089 4.23265 41.4478 14.5011 41.4478 14.5011C41.4478 14.5011 32.4511 25.4528 23.0937 25.4528C22.2396 25.4528 21.4424 25.3769 20.6832 25.244V28.167C21.3285 28.243 22.0118 28.2999 22.6951 28.2999C31.4261 28.2999 37.7276 23.8395 43.8393 18.5819C44.8453 19.398 49.002 21.372 49.8561 22.2261C44.0481 27.0851 30.5151 31.0141 22.847 31.0141C22.1067 31.0141 21.4045 30.9761 20.7022 30.9002V35H53.861V0L20.6642 0ZM20.6642 22.7766V25.263C12.5975 23.8205 10.3578 15.4311 10.3578 15.4311C10.3578 15.4311 14.2299 11.1415 20.6642 10.4393V13.1725H20.6452C17.2857 12.7549 14.6284 15.9246 14.6284 15.9246C14.6284 15.9246 16.1279 21.2202 20.6642 22.7766ZM6.33399 15.0705C6.33399 15.0705 11.1171 8.02874 20.6642 7.2885V4.72614C10.0921 5.58026 0.943542 14.539 0.943542 14.539C0.943542 14.539 6.1252 29.5336 20.6642 30.9192V28.186C9.99721 26.8384 6.33399 15.0705 6.33399 15.0705Z" fill="#9F9F9F"/>
</svg>
