<svg width="28" height="28" viewBox="0 0 28 28" fill="none" xmlns="http://www.w3.org/2000/svg">
<g clip-path="url(#clip0_1236_760)">
<path d="M14.0006 0C6.26827 0 0 6.26941 0 14.0006C0 21.7329 6.26827 28 14.0006 28C21.7329 28 28 21.7329 28 14.0006C28 6.26941 21.7323 0 14.0006 0ZM21.0529 11.1777C21.0603 11.3289 21.0631 11.4808 21.0631 11.6343C21.0631 16.2969 17.5142 21.6726 11.0248 21.6726C9.03257 21.6726 7.17739 21.0887 5.61615 20.088C5.89246 20.1205 6.17276 20.1369 6.4576 20.1369C8.11095 20.1369 9.63239 19.5729 10.8394 18.6269C9.29581 18.5979 7.99326 17.5773 7.5441 16.1758C7.75902 16.2179 7.98018 16.239 8.2076 16.239C8.5294 16.239 8.84097 16.1969 9.13718 16.1156C7.5225 15.7915 6.30637 14.3644 6.30637 12.6565C6.30637 12.6412 6.30637 12.6264 6.30694 12.611C6.78225 12.8754 7.32635 13.034 7.90513 13.0528C6.95793 12.4189 6.33536 11.3403 6.33536 10.1157C6.33536 9.46922 6.50934 8.86257 6.81295 8.34178C8.55328 10.4761 11.1533 11.881 14.0859 12.0277C14.0256 11.7701 13.9943 11.5001 13.9943 11.2238C13.9943 9.27591 15.5737 7.69591 17.5227 7.69591C18.5376 7.69591 19.4541 8.12459 20.0977 8.8097C20.9016 8.65221 21.6567 8.3577 22.3384 7.95346C22.074 8.77786 21.5151 9.46922 20.7862 9.9053C21.5009 9.82001 22.1809 9.63012 22.8131 9.34982C22.3412 10.0588 21.7425 10.6802 21.0529 11.1777Z" fill="#1F1F1F"/>
</g>
<defs>
<clipPath id="clip0_1236_760">
<rect width="28" height="28" fill="white"/>
</clipPath>
</defs>
</svg>
