<svg width="140" height="38" viewBox="0 0 140 38" fill="none" xmlns="http://www.w3.org/2000/svg">
<path d="M56.1513 5.8681H49.748V8.80872C49.8034 9.29491 49.7492 9.78706 49.589 10.2506C49.4287 10.7142 49.1665 11.1379 48.8206 11.4921C48.4756 11.846 48.0555 12.1221 47.5897 12.3011C47.1238 12.4801 46.6236 12.5576 46.1238 12.5283H44.9462V18.6376H49.0903V28.4299C49.0903 32.9782 52.0567 35.78 56.9064 35.78C58.1802 35.84 59.4514 35.6202 60.6265 35.1369V29.3404C60.009 29.4827 59.3776 29.5597 58.7432 29.5699C57.1896 29.5699 56.1528 29.0642 56.1528 27.1817V18.6376H60.7209V12.5283H56.1528L56.1513 5.8681ZM74.374 29.6166C73.6328 29.6168 72.8998 29.4656 72.2222 29.1726C71.5446 28.8795 70.9374 28.4513 70.4397 27.9154C69.943 27.3783 69.5672 26.7456 69.3365 26.0581C69.1058 25.3707 69.0253 24.6436 69.1003 23.924C69.1003 20.0655 71.6907 18.2736 74.374 18.2736C77.1053 18.2736 79.6477 20.0655 79.6477 23.924C79.6477 27.7824 77.1008 29.624 74.374 29.624V29.6166ZM74.374 11.8473C72.733 11.8003 71.0994 12.0798 69.5727 12.6687C68.046 13.2577 66.6583 14.1439 65.4942 15.2731C64.3306 16.4035 63.4153 17.7533 62.8041 19.2401C62.1928 20.7269 61.8984 22.3196 61.9389 23.921C61.8978 25.525 62.1914 27.1204 62.8018 28.6103C63.4122 30.1001 64.3266 31.4534 65.4897 32.588C66.6526 33.7225 68.0399 34.6146 69.5672 35.2101C71.0944 35.8055 72.7298 36.0919 74.374 36.0518C76.0199 36.0957 77.6577 35.8116 79.1871 35.2168C80.7165 34.6219 82.1055 33.7289 83.2689 32.5923C84.4322 31.4576 85.346 30.1034 85.9547 28.6125C86.5634 27.1216 86.8542 25.5252 86.8092 23.921C86.8536 22.3186 86.562 20.7241 85.9522 19.2355C85.3424 17.7469 84.4272 16.3956 83.2629 15.2643C82.0986 14.1327 80.7096 13.2452 79.1811 12.6561C77.6526 12.0669 76.0167 11.7887 74.374 11.8385V11.8473ZM96.6973 35.3576V22.2154C96.664 21.7043 96.7394 21.1921 96.9189 20.7108C97.0984 20.2296 97.3781 19.7898 97.7403 19.4191C98.1026 19.0484 98.5395 18.7549 99.0237 18.557C99.5079 18.3591 100.029 18.2612 100.554 18.2693C101.073 18.2365 101.594 18.3154 102.079 18.5004C102.564 18.6853 103.002 18.9719 103.361 19.3399C103.72 19.7078 103.992 20.1482 104.158 20.6299C104.324 21.1116 104.379 21.6229 104.32 22.1277V35.3576H111.383V22.1745C111.355 21.6622 111.436 21.1497 111.621 20.6696C111.807 20.1895 112.092 19.7521 112.46 19.385C112.827 19.018 113.269 18.7294 113.756 18.5373C114.244 18.3452 114.767 18.254 115.293 18.2693C115.81 18.2416 116.326 18.3243 116.806 18.5118C117.286 18.6992 117.719 18.9868 118.073 19.3543C118.428 19.7218 118.695 20.1605 118.858 20.6396C119.02 21.1187 119.073 21.6266 119.013 22.1277V35.3576H125.935V20.5668C125.935 14.3655 121.696 11.8385 117.271 11.8385C115.845 11.7515 114.42 12.0377 113.146 12.6675C111.871 13.2973 110.792 14.2478 110.019 15.4207C109.34 14.2388 108.325 13.2725 107.098 12.6374C105.871 12.0022 104.482 11.7249 103.098 11.8385C101.785 11.8195 100.487 12.1105 99.3142 12.6867C98.1416 13.2628 97.1291 14.1071 96.3632 15.1474V12.5283H89.5359V35.3576H96.6973ZM137.239 12.5283H130.077V35.3576H137.234L137.239 12.5283ZM129.465 5.55387C129.465 6.63066 129.9 7.6641 130.675 8.43014C131.451 9.19619 132.505 9.63311 133.609 9.64618C134.164 9.65062 134.714 9.54792 135.229 9.34399C135.743 9.14007 136.211 8.83894 136.605 8.45795C136.999 8.07778 137.312 7.62557 137.526 7.12723C137.74 6.62889 137.851 6.09423 137.853 5.55387C137.851 5.01352 137.74 4.47885 137.526 3.98051C137.312 3.48218 136.999 3.02996 136.605 2.64979C136.211 2.2688 135.743 1.96768 135.229 1.76375C134.714 1.55983 134.164 1.45713 133.609 1.46156C132.505 1.47464 131.451 1.91156 130.675 2.6776C129.9 3.44365 129.465 4.47708 129.465 5.55387Z" fill="#FF0083"/>
<path fill-rule="evenodd" clip-rule="evenodd" d="M16.6688 1.68921C10.2692 2.84784 4.93517 7.78831 2.96572 14.3811C2.60656 15.5835 2.47941 16.8791 2.50143 19.106C2.53748 22.6979 3.31167 25.6056 4.92747 28.2171L5.90531 29.7972L11.334 26.528L16.7629 23.2591L16.8367 29.8987L16.9104 36.5383H19.6576H22.4049V29.9838C22.4049 25.4109 22.4962 23.4292 22.707 23.4292C22.873 23.4292 25.3067 24.8285 28.1153 26.5391C32.0617 28.9426 33.3213 29.5866 33.6615 29.3746C34.1175 29.0907 36.3551 24.908 36.1462 24.7301C36.0812 24.6748 32.3575 22.4047 27.8715 19.6856L19.7149 14.7417L14.2155 18.1094C11.1909 19.9614 8.56171 21.4768 8.37291 21.4768C8.11448 21.4768 8.05668 20.8032 8.13897 18.7573C8.2331 16.4197 8.37126 15.7726 9.12288 14.1485C12.7866 6.23223 22.944 4.84322 28.6842 11.4734C29.7873 12.7475 30.8488 15.0739 31.2115 17.0132C31.3654 17.8341 31.5209 18.5269 31.5577 18.5532C31.5946 18.5794 32.8012 19.3101 34.2392 20.1767L36.8537 21.7526L36.9396 19.4532C37.0571 16.3087 36.6195 14.2528 35.2024 11.2963C33.7295 8.22231 32.1093 6.31953 29.4036 4.48564C25.8189 2.05571 20.769 0.946733 16.6688 1.68921Z" fill="url(#paint0_linear_3730_6331)"/>
<defs>
<linearGradient id="paint0_linear_3730_6331" x1="24.0551" y1="4.9031" x2="16.6124" y2="24.1098" gradientUnits="userSpaceOnUse">
<stop stop-color="#7A1DF2"/>
<stop offset="1" stop-color="#FF0083"/>
</linearGradient>
</defs>
</svg>
