<svg width="21" height="18" viewBox="0 0 21 18" fill="none" xmlns="http://www.w3.org/2000/svg">
<path d="M2.27539 6.97498C2.31289 6.97498 2.31289 6.97498 2.27539 6.97498C1.93789 6.97498 1.60039 6.89998 1.30039 6.82498C0.812891 6.67498 0.362891 7.12498 0.512891 7.57498C0.925391 9.18748 2.20039 10.4625 3.81289 10.8C3.43789 10.9125 3.06289 10.95 2.68789 10.95C2.31289 10.95 2.05039 11.3625 2.23789 11.7C2.95039 13.0125 4.33789 13.9125 5.87539 13.95H6.25039C6.66289 13.95 7.00039 14.2875 7.00039 14.7C7.00039 15.1125 6.66289 15.45 6.25039 15.45C5.76289 15.45 5.16289 15.4125 4.56289 15.2625C4.18789 15.1875 3.81289 15.1875 3.47539 15.3C2.83789 15.525 2.16289 15.7125 1.45039 15.7875C1.18789 15.825 1.00039 16.0125 1.00039 16.275C1.00039 16.4625 1.11289 16.65 1.30039 16.725C2.76289 17.3625 4.41289 17.7375 6.13789 17.7375C14.0504 17.7375 18.4004 11.025 18.4004 5.17498C18.4004 4.83748 18.5504 4.49998 18.8129 4.27498C19.2629 3.89998 19.6754 3.48748 20.0504 2.99998C20.2004 2.81248 20.0129 2.54998 19.7879 2.62498C19.3379 2.77498 18.8879 2.88748 18.4004 2.96248C18.3254 2.96248 18.2879 2.88748 18.3629 2.81248C18.9254 2.39998 19.4129 1.83748 19.7129 1.19998C19.8254 0.974975 19.6004 0.749976 19.3754 0.862476C18.9629 1.08748 18.5129 1.23748 18.0629 1.38748C17.6129 1.53748 17.0879 1.42498 16.7129 1.12498C16.0004 0.562475 15.0629 0.224976 14.0879 0.224976C12.1004 0.224976 10.4129 1.61248 9.92539 3.52498C9.85039 3.86248 10.1129 4.16248 10.4504 4.16248C11.0504 4.12498 11.6504 4.04998 12.1004 3.97498C12.4754 3.89998 12.8504 4.08748 13.0004 4.42498C13.1879 4.87498 12.9254 5.32498 12.5129 5.43748C10.7879 5.92498 8.87539 5.58748 8.87539 5.58748C5.95039 5.17498 3.36289 3.74998 1.48789 1.68748C1.22539 1.38748 0.737891 1.49998 0.625391 1.83748C0.475391 2.28748 0.400391 2.77498 0.400391 3.29998C0.400391 4.83748 1.15039 6.18748 2.27539 6.97498Z" fill="#B4B4B4"/>
</svg>
