<svg width="215" height="215" viewBox="0 0 215 215" fill="none" xmlns="http://www.w3.org/2000/svg">
<g clip-path="url(#clip0_1250_4518)">
<path fill-rule="evenodd" clip-rule="evenodd" d="M107 42C132.408 42 153 62.5922 153 88C153 113.408 132.408 134 107 134C81.5922 134 61 113.408 61 88C61 62.5922 81.5922 42 107 42Z" fill="white"/>
<path d="M90.2357 77.5287C99.4896 68.4904 114.511 68.4904 123.765 77.5287L124.879 78.6248C125.347 79.074 125.347 79.8107 124.879 80.2599L121.07 83.9795C120.836 84.2131 120.459 84.2131 120.226 83.9795L118.698 82.4881C112.229 76.181 101.772 76.181 95.3029 82.4881L93.6677 84.0873C93.4341 84.3209 93.0568 84.3209 92.8232 84.0873L89.0138 80.3678C88.5466 79.9185 88.5466 79.1818 89.0138 78.7326L90.2357 77.5287ZM131.654 85.2193L135.05 88.5255C135.517 88.9748 135.517 89.7115 135.05 90.1607L119.758 105.093C119.291 105.542 118.536 105.542 118.087 105.093L107.234 94.4912C107.126 94.3833 106.929 94.3833 106.821 94.4912L95.9677 105.093C95.5006 105.542 94.7459 105.542 94.2966 105.093L78.9513 90.1607C78.4842 89.7115 78.4842 88.9748 78.9513 88.5255L82.3474 85.2193C82.8146 84.7701 83.5693 84.7701 84.0185 85.2193L94.8716 95.8208C94.9795 95.9286 95.1771 95.9286 95.2849 95.8208L106.138 85.2193C106.605 84.7701 107.36 84.7701 107.809 85.2193L118.662 95.8208C118.77 95.9286 118.968 95.9286 119.076 95.8208L129.929 85.2193C130.432 84.7701 131.186 84.7701 131.654 85.2193Z" fill="#0270FF"/>
</g>
<path d="M16.7998 162L11.4248 147.325H14.9248L18.4498 156.925L19.0248 159.35H19.2748L19.5998 157.65L22.9248 147.325H27.1748L30.6498 157.65L31.0998 159.35H31.3498L31.9248 156.925L35.1998 147.325H38.6998L38.4498 148.825L33.2998 162H29.0498L25.6498 152.175L25.1498 150.575H24.8998L24.4248 152.175L21.0498 162H16.7998ZM42.682 162C41.4154 162 40.4987 161.708 39.932 161.125C39.3654 160.525 39.082 159.708 39.082 158.675C39.082 157.592 39.3737 156.758 39.957 156.175C40.557 155.592 41.4654 155.3 42.682 155.3H43.957C45.207 155.3 46.332 155.333 47.332 155.4C48.332 155.467 49.157 155.533 49.807 155.6V153.95C49.807 153.8 49.7904 153.65 49.757 153.5C49.7237 153.333 49.6237 153.2 49.457 153.1C49.2904 153 49.007 152.95 48.607 152.95H47.357C45.5404 152.95 44.0237 152.983 42.807 153.05C41.5904 153.1 40.7654 153.15 40.332 153.2L40.057 151.3C40.057 151.067 40.6904 150.925 41.957 150.875C43.2237 150.825 45.3404 150.8 48.307 150.8H49.557C50.3904 150.8 51.032 150.917 51.482 151.15C51.932 151.383 52.2487 151.675 52.432 152.025C52.632 152.375 52.7487 152.733 52.782 153.1C52.832 153.45 52.857 153.75 52.857 154V162H50.807L49.832 161.5C49.132 161.617 48.2904 161.733 47.307 161.85C46.3237 161.95 45.1987 162 43.932 162H42.682ZM43.332 159.85H49.057C49.4237 159.85 49.6404 159.817 49.707 159.75C49.7737 159.683 49.807 159.475 49.807 159.125V157.2H43.332C42.882 157.2 42.5654 157.308 42.382 157.525C42.2154 157.742 42.132 158.083 42.132 158.55C42.132 159.017 42.232 159.35 42.432 159.55C42.632 159.75 42.932 159.85 43.332 159.85ZM55.9912 162V148.15L55.7412 146.15H59.0412V162H55.9912ZM62.29 162V148.15L62.04 146.15H65.34V162H62.29ZM71.3889 162C70.5555 162 69.9139 161.892 69.4639 161.675C69.0139 161.458 68.6889 161.183 68.4889 160.85C68.3055 160.517 68.1889 160.167 68.1389 159.8C68.1055 159.433 68.0889 159.1 68.0889 158.8V154C68.0889 153.75 68.1055 153.45 68.1389 153.1C68.1889 152.733 68.3055 152.375 68.4889 152.025C68.6889 151.675 69.0139 151.383 69.4639 151.15C69.9305 150.917 70.5722 150.8 71.3889 150.8H76.7639C77.8639 150.8 78.7222 150.908 79.3389 151.125C79.9722 151.325 80.4139 151.658 80.6639 152.125C80.9305 152.592 81.0639 153.217 81.0639 154V157.7H76.6889C75.1889 157.7 73.9639 157.667 73.0139 157.6C72.0805 157.533 71.4555 157.492 71.1389 157.475V158.85C71.1222 159.517 71.5222 159.85 72.3389 159.85H73.6139C74.5139 159.85 75.3889 159.842 76.2389 159.825C77.1055 159.792 77.8972 159.758 78.6139 159.725C79.3305 159.675 79.9055 159.633 80.3389 159.6L81.3389 161.225C81.3389 161.742 79.6972 162 76.4139 162H71.3889ZM71.1389 155.55H78.0139V153.95C78.0139 153.617 77.9722 153.383 77.8889 153.25C77.8222 153.117 77.6055 153.033 77.2389 153C76.8722 152.967 76.2472 152.95 75.3639 152.95H72.3389C71.5389 152.95 71.1389 153.283 71.1389 153.95V155.55ZM88.1918 162C86.9251 162 86.0585 161.733 85.5918 161.2C85.1251 160.667 84.8918 159.867 84.8918 158.8V152.95H82.8418V150.8H83.8918C84.2085 150.8 84.4335 150.75 84.5668 150.65C84.7168 150.55 84.8251 150.35 84.8918 150.05L85.3918 147.375H87.9418V150.8H93.1418V152.95H87.9418V158.825C87.9418 159.242 88.0418 159.517 88.2418 159.65C88.4418 159.783 88.7418 159.85 89.1418 159.85H92.6668L92.9168 161.75C92.5668 161.8 92.0335 161.858 91.3168 161.925C90.6001 161.975 89.8168 162 88.9668 162H88.1918ZM99.9705 162C98.7872 162 97.8622 161.833 97.1955 161.5C96.5288 161.167 96.0622 160.667 95.7955 160C95.5288 159.333 95.3955 158.508 95.3955 157.525V151.95C95.3955 150.35 95.7538 149.175 96.4705 148.425C97.1872 147.658 98.3538 147.275 99.9705 147.275H107.496C108.646 147.275 109.521 147.342 110.121 147.475C110.737 147.592 111.046 147.717 111.046 147.85L110.546 149.925C110.262 149.875 109.421 149.825 108.021 149.775C106.637 149.708 104.621 149.675 101.971 149.675H100.696C99.3622 149.675 98.6955 150.267 98.6955 151.45V157.825C98.6955 158.392 98.8372 158.833 99.1205 159.15C99.4205 159.45 99.9455 159.6 100.696 159.6H101.721C104.487 159.6 106.629 159.575 108.146 159.525C109.679 159.458 110.629 159.392 110.996 159.325L112.021 160.975C112.021 161.058 111.879 161.183 111.596 161.35C111.329 161.517 110.829 161.667 110.096 161.8C109.362 161.933 108.304 162 106.921 162H99.9705ZM117.068 162C115.951 162 115.118 161.775 114.568 161.325C114.034 160.875 113.768 160.142 113.768 159.125V154C113.768 153.75 113.784 153.45 113.818 153.1C113.868 152.733 113.984 152.375 114.168 152.025C114.368 151.675 114.693 151.383 115.143 151.15C115.609 150.917 116.251 150.8 117.068 150.8H123.968C124.801 150.8 125.443 150.917 125.893 151.15C126.343 151.383 126.659 151.675 126.843 152.025C127.043 152.375 127.159 152.733 127.193 153.1C127.243 153.45 127.268 153.75 127.268 154V158.8C127.268 159.1 127.243 159.433 127.193 159.8C127.159 160.167 127.043 160.517 126.843 160.85C126.643 161.183 126.318 161.458 125.868 161.675C125.418 161.892 124.784 162 123.968 162H117.068ZM118.018 159.85H123.018C123.834 159.85 124.243 159.517 124.243 158.85V153.95C124.243 153.283 123.834 152.95 123.018 152.95H118.018C117.218 152.95 116.818 153.283 116.818 153.95V158.85C116.818 159.517 117.218 159.85 118.018 159.85ZM130.009 162V150.8H132.059L133.059 151.3C133.759 151.167 134.6 151.05 135.584 150.95C136.567 150.85 137.692 150.8 138.959 150.8H140.209C141.042 150.8 141.684 150.917 142.134 151.15C142.584 151.383 142.9 151.675 143.084 152.025C143.284 152.375 143.4 152.733 143.434 153.1C143.484 153.45 143.509 153.75 143.509 154V162H140.459V153.95C140.459 153.283 140.059 152.95 139.259 152.95H133.809C133.492 152.95 133.284 152.983 133.184 153.05C133.1 153.1 133.059 153.25 133.059 153.5V162H130.009ZM146.391 162V150.8H148.441L149.441 151.3C150.141 151.167 150.982 151.05 151.966 150.95C152.949 150.85 154.074 150.8 155.341 150.8H156.591C157.424 150.8 158.066 150.917 158.516 151.15C158.966 151.383 159.282 151.675 159.466 152.025C159.666 152.375 159.782 152.733 159.816 153.1C159.866 153.45 159.891 153.75 159.891 154V162H156.841V153.95C156.841 153.283 156.441 152.95 155.641 152.95H150.191C149.874 152.95 149.666 152.983 149.566 153.05C149.482 153.1 149.441 153.25 149.441 153.5V162H146.391ZM165.822 162C164.989 162 164.347 161.892 163.897 161.675C163.447 161.458 163.122 161.183 162.922 160.85C162.739 160.517 162.622 160.167 162.572 159.8C162.539 159.433 162.522 159.1 162.522 158.8V154C162.522 153.75 162.539 153.45 162.572 153.1C162.622 152.733 162.739 152.375 162.922 152.025C163.122 151.675 163.447 151.383 163.897 151.15C164.364 150.917 165.006 150.8 165.822 150.8H171.197C172.297 150.8 173.156 150.908 173.772 151.125C174.406 151.325 174.847 151.658 175.097 152.125C175.364 152.592 175.497 153.217 175.497 154V157.7H171.122C169.622 157.7 168.397 157.667 167.447 157.6C166.514 157.533 165.889 157.492 165.572 157.475V158.85C165.556 159.517 165.956 159.85 166.772 159.85H168.047C168.947 159.85 169.822 159.842 170.672 159.825C171.539 159.792 172.331 159.758 173.047 159.725C173.764 159.675 174.339 159.633 174.772 159.6L175.772 161.225C175.772 161.742 174.131 162 170.847 162H165.822ZM165.572 155.55H172.447V153.95C172.447 153.617 172.406 153.383 172.322 153.25C172.256 153.117 172.039 153.033 171.672 153C171.306 152.967 170.681 152.95 169.797 152.95H166.772C165.972 152.95 165.572 153.283 165.572 153.95V155.55ZM181.325 162C180.492 162 179.85 161.892 179.4 161.675C178.95 161.458 178.625 161.183 178.425 160.85C178.242 160.517 178.125 160.167 178.075 159.8C178.042 159.433 178.025 159.1 178.025 158.8V154C178.025 153.75 178.042 153.45 178.075 153.1C178.125 152.733 178.242 152.375 178.425 152.025C178.625 151.675 178.95 151.383 179.4 151.15C179.867 150.917 180.509 150.8 181.325 150.8H184.8C186.884 150.8 188.359 150.858 189.225 150.975C190.109 151.075 190.55 151.183 190.55 151.3L190.05 153.2C189.584 153.167 188.992 153.133 188.275 153.1C187.559 153.05 186.784 153.017 185.95 153C185.134 152.967 184.334 152.95 183.55 152.95H182.275C181.475 152.95 181.075 153.283 181.075 153.95V158.85C181.059 159.517 181.459 159.85 182.275 159.85H183.55C184.45 159.85 185.325 159.842 186.175 159.825C187.042 159.792 187.834 159.758 188.55 159.725C189.267 159.675 189.842 159.633 190.275 159.6L191.275 161.225C191.275 161.742 189.634 162 186.35 162H181.325ZM197.371 162C196.105 162 195.238 161.733 194.771 161.2C194.305 160.667 194.071 159.867 194.071 158.8V152.95H192.021V150.8H193.071C193.388 150.8 193.613 150.75 193.746 150.65C193.896 150.55 194.005 150.35 194.071 150.05L194.571 147.375H197.121V150.8H202.321V152.95H197.121V158.825C197.121 159.242 197.221 159.517 197.421 159.65C197.621 159.783 197.921 159.85 198.321 159.85H201.846L202.096 161.75C201.746 161.8 201.213 161.858 200.496 161.925C199.78 161.975 198.996 162 198.146 162H197.371Z" fill="#171515"/>
<defs>
<clipPath id="clip0_1250_4518">
<rect width="92" height="92" fill="white" transform="translate(61 42)"/>
</clipPath>
</defs>
</svg>
