<svg width="92" height="92" viewBox="0 0 92 92" fill="none" xmlns="http://www.w3.org/2000/svg">
<g clip-path="url(#clip0_1250_4523)">
<path fill-rule="evenodd" clip-rule="evenodd" d="M46 0C71.4078 0 92 20.5922 92 46C92 71.4078 71.4078 92 46 92C20.5922 92 0 71.4078 0 46C0 20.5922 20.5922 0 46 0Z" fill="white"/>
<path d="M29.2357 35.5287C38.4896 26.4904 53.5115 26.4904 62.7654 35.5287L63.8794 36.6248C64.3466 37.074 64.3466 37.8107 63.8794 38.2599L60.0701 41.9795C59.8365 42.2131 59.4591 42.2131 59.2255 41.9795L57.6982 40.4881C51.2294 34.181 40.7716 34.181 34.3029 40.4881L32.6677 42.0873C32.4341 42.3209 32.0568 42.3209 31.8232 42.0873L28.0138 38.3677C27.5466 37.9185 27.5466 37.1818 28.0138 36.7326L29.2357 35.5287ZM70.6537 43.2193L74.0497 46.5255C74.5169 46.9748 74.5169 47.7115 74.0497 48.1607L58.7584 63.0927C58.2912 63.5419 57.5365 63.5419 57.0873 63.0927L46.2341 52.4912C46.1263 52.3833 45.9287 52.3833 45.8209 52.4912L34.9677 63.0927C34.5006 63.5419 33.7459 63.5419 33.2966 63.0927L17.9513 48.1607C17.4842 47.7115 17.4842 46.9748 17.9513 46.5255L21.3474 43.2193C21.8146 42.7701 22.5693 42.7701 23.0185 43.2193L33.8716 53.8208C33.9795 53.9286 34.1771 53.9286 34.2849 53.8208L45.138 43.2193C45.6052 42.7701 46.3599 42.7701 46.8091 43.2193L57.6623 53.8208C57.7701 53.9286 57.9677 53.9286 58.0755 53.8208L68.9287 43.2193C69.4318 42.7701 70.1865 42.7701 70.6537 43.2193Z" fill="#0270FF"/>
</g>
<defs>
<clipPath id="clip0_1250_4523">
<rect width="92" height="92" fill="white"/>
</clipPath>
</defs>
</svg>
