<svg width="29" height="29" viewBox="0 0 29 29" fill="none" xmlns="http://www.w3.org/2000/svg">
<g clip-path="url(#clip0_1250_4012)">
<path d="M14.5741 0.495544C6.84176 0.495544 0.573486 6.76496 0.573486 14.4961C0.573486 22.2284 6.84176 28.4955 14.5741 28.4955C22.3063 28.4955 28.5735 22.2284 28.5735 14.4961C28.5735 6.76496 22.3058 0.495544 14.5741 0.495544ZM21.6264 11.6733C21.6338 11.8245 21.6366 11.9763 21.6366 12.1298C21.6366 16.7925 18.0877 22.1681 11.5983 22.1681C9.60606 22.1681 7.75087 21.5842 6.18963 20.5836C6.46595 20.616 6.74624 20.6325 7.03109 20.6325C8.68443 20.6325 10.2059 20.0685 11.4129 19.1224C9.8693 19.0934 8.56675 18.0729 8.11759 16.6714C8.3325 16.7135 8.55367 16.7345 8.78109 16.7345C9.10289 16.7345 9.41446 16.6924 9.71067 16.6111C8.09599 16.2871 6.87985 14.86 6.87985 13.1521C6.87985 13.1367 6.87985 13.1219 6.88042 13.1066C7.35573 13.371 7.89984 13.5296 8.47862 13.5483C7.53141 12.9144 6.90885 11.8359 6.90885 10.6112C6.90885 9.96476 7.08283 9.35812 7.38643 8.83733C9.12677 10.9717 11.7268 12.3766 14.6593 12.5232C14.5991 12.2657 14.5678 11.9956 14.5678 11.7193C14.5678 9.77146 16.1472 8.19145 18.0962 8.19145C19.1111 8.19145 20.0276 8.62014 20.6712 9.30524C21.4751 9.14775 22.2302 8.85325 22.9119 8.44901C22.6475 9.2734 22.0886 9.96476 21.3597 10.4008C22.0744 10.3156 22.7544 10.1257 23.3866 9.84537C22.9147 10.5543 22.316 11.1758 21.6264 11.6733Z" fill="#1F1F1F"/>
</g>
<defs>
<clipPath id="clip0_1250_4012">
<rect width="28" height="28" fill="white" transform="translate(0.573486 0.495544)"/>
</clipPath>
</defs>
</svg>
