<svg width="40" height="40" viewBox="0 0 40 40" fill="none" xmlns="http://www.w3.org/2000/svg">
<rect width="40" height="40" rx="20" fill="white"/>
<path d="M28.3147 28.3822C27.8844 28.7712 27.3008 28.9897 26.6923 28.9897C26.0838 28.9897 25.5002 28.7712 25.0699 28.3822L20.001 23.1444L14.932 28.3804C14.7196 28.5756 14.4665 28.7309 14.1874 28.8372C13.9083 28.9435 13.6086 28.9989 13.3058 29C13.0029 29.0011 12.7027 28.948 12.4227 28.8437C12.1426 28.7394 11.8881 28.5861 11.674 28.3924C11.4598 28.1988 11.2901 27.9688 11.1748 27.7156C11.0594 27.4624 11.0007 27.191 11.0019 26.9172C11.0032 26.6434 11.0644 26.3725 11.182 26.1201C11.2996 25.8678 11.4713 25.639 11.6872 25.4469L16.9607 20.0017L11.6853 14.5531C11.4694 14.361 11.2977 14.1322 11.1801 13.8799C11.0624 13.6275 11.0013 13.3566 11 13.0828C10.9988 12.809 11.0575 12.5376 11.1729 12.2844C11.2882 12.0312 11.4579 11.8012 11.672 11.6076C11.8862 11.4139 12.1407 11.2606 12.4208 11.1563C12.7008 11.052 13.001 10.9989 13.3038 11C13.6067 11.0011 13.9064 11.0565 14.1855 11.1628C14.4646 11.2691 14.7177 11.4244 14.9301 11.6196L20.001 16.8591L25.0699 11.6196C25.2823 11.4244 25.5354 11.2691 25.8145 11.1628C26.0936 11.0565 26.3933 11.0011 26.6962 11C26.999 10.9989 27.2992 11.052 27.5793 11.1563C27.8593 11.2606 28.1138 11.4139 28.328 11.6076C28.5421 11.8012 28.7118 12.0312 28.8271 12.2844C28.9425 12.5376 29.0012 12.809 29 13.0828C28.9987 13.3566 28.9376 13.6275 28.8199 13.8799C28.7023 14.1322 28.5306 14.361 28.3147 14.5531L23.0412 20.0017L28.3147 25.4469C28.528 25.6396 28.6973 25.8684 28.8127 26.1202C28.9282 26.372 28.9876 26.642 28.9876 26.9146C28.9876 27.1872 28.9282 27.4571 28.8127 27.7089C28.6973 27.9607 28.528 28.1895 28.3147 28.3822Z" fill="#FF0083"/>
</svg>
