<svg width="93" height="92" viewBox="0 0 93 92" fill="none" xmlns="http://www.w3.org/2000/svg">
<g clip-path="url(#clip0_1250_4483)">
<circle cx="46.5" cy="46" r="46" fill="white"/>
<path fill-rule="evenodd" clip-rule="evenodd" d="M34.6125 68.0667L42.241 70.0907V67.444L42.8637 66.8213H47.2228V69.9349V72.1144H42.5524L36.7921 69.6235L34.6125 68.0667Z" fill="#CDBDB2"/>
<path fill-rule="evenodd" clip-rule="evenodd" d="M59.5217 68.0667L52.0491 70.0907V67.444L51.4264 66.8213H47.0673V69.9349V72.1144H51.7377L57.4977 69.6235L59.5217 68.0667Z" fill="#CDBDB2"/>
<path fill-rule="evenodd" clip-rule="evenodd" d="M42.8636 62.3215L42.2408 67.4588L43.0191 66.8361H51.1145L52.0485 67.4588L51.4258 62.3215L50.1804 61.543L43.9532 61.6988L42.8636 62.3215Z" fill="#393939"/>
<path fill-rule="evenodd" clip-rule="evenodd" d="M38.6611 27.6045L42.3974 36.3226L44.1101 61.6985H50.1814L52.0496 36.3226L55.4745 27.6045H38.6611Z" fill="#F89C35"/>
<path fill-rule="evenodd" clip-rule="evenodd" d="M22.314 46.7397L17.955 59.3497L28.8525 58.7269H35.858V53.2783L35.5466 42.0693L33.9898 43.3148L22.314 46.7397Z" fill="#F89D35"/>
<path fill-rule="evenodd" clip-rule="evenodd" d="M30.564 48.1562L43.3297 48.4676L41.9287 55.0062L35.8571 53.4494L30.564 48.1562Z" fill="#D87C30"/>
<path fill-rule="evenodd" clip-rule="evenodd" d="M30.564 48.3135L35.8571 53.2952V58.277L30.564 48.3135Z" fill="#EA8D3A"/>
<path fill-rule="evenodd" clip-rule="evenodd" d="M35.8591 53.4346L42.0863 54.9914L44.1103 61.6857L42.7091 62.464L35.8591 58.4163V53.4346Z" fill="#F89D35"/>
<path fill-rule="evenodd" clip-rule="evenodd" d="M35.858 58.4209L34.6125 68.073L42.8637 62.313L35.858 58.4209Z" fill="#EB8F35"/>
<path fill-rule="evenodd" clip-rule="evenodd" d="M43.3316 48.4482L44.1101 61.6812L41.7748 54.909L43.3316 48.4482Z" fill="#EA8E3A"/>
<path fill-rule="evenodd" clip-rule="evenodd" d="M28.6969 58.5767L35.8582 58.4209L34.6127 68.073L28.6969 58.5767Z" fill="#D87C30"/>
<path fill-rule="evenodd" clip-rule="evenodd" d="M21.3799 72.278L34.6126 68.0745L28.6967 58.5781L17.955 59.3564L21.3799 72.278Z" fill="#EB8F35"/>
<path fill-rule="evenodd" clip-rule="evenodd" d="M42.3956 36.3193L35.7015 41.9238L30.564 48.151L43.3297 48.6182L42.3956 36.3193Z" fill="#E8821E"/>
<path fill-rule="evenodd" clip-rule="evenodd" d="M34.6125 68.0667L42.8637 62.3066L42.241 67.2884V70.0906L36.6365 69.0007L34.6125 68.0667Z" fill="#DFCEC3"/>
<path fill-rule="evenodd" clip-rule="evenodd" d="M59.5217 68.0667L51.4264 62.3066L52.0491 67.2884V70.0906L57.6536 69.0007L59.5217 68.0667Z" fill="#DFCEC3"/>
<path fill-rule="evenodd" clip-rule="evenodd" d="M39.9049 51.2559L41.6176 54.8366L35.5459 53.2798L39.9049 51.2559Z" fill="#393939"/>
<path fill-rule="evenodd" clip-rule="evenodd" d="M21.223 20.2822L42.3955 36.3171L38.815 27.599L21.223 20.2822Z" fill="#E88F35"/>
<path fill-rule="evenodd" clip-rule="evenodd" d="M21.2233 20.2822L18.421 28.8446L19.9778 38.1854L18.8881 38.8081L20.4449 40.2092L19.1994 41.299L20.9119 42.8558L19.8221 43.7899L22.313 46.9035L33.989 43.3228C39.6973 38.7562 42.4995 36.421 42.3957 36.3173C42.2919 36.2135 35.2344 30.8685 21.2233 20.2822Z" fill="#8E5A30"/>
<path fill-rule="evenodd" clip-rule="evenodd" d="M71.82 46.7397L76.1791 59.3497L65.2815 58.727H58.276V53.2783L58.5874 42.0693L60.1442 43.3148L71.82 46.7397Z" fill="#F89D35"/>
<path fill-rule="evenodd" clip-rule="evenodd" d="M63.5701 48.1562L50.8043 48.4676L52.2053 55.0062L58.277 53.4494L63.5701 48.1562Z" fill="#D87C30"/>
<path fill-rule="evenodd" clip-rule="evenodd" d="M63.5701 48.3135L58.277 53.2952V58.277L63.5701 48.3135Z" fill="#EA8D3A"/>
<path fill-rule="evenodd" clip-rule="evenodd" d="M58.2749 53.4346L52.0477 54.9914L50.0237 61.6857L51.425 62.464L58.2749 58.4163V53.4346Z" fill="#F89D35"/>
<path fill-rule="evenodd" clip-rule="evenodd" d="M58.276 58.4209L59.5215 68.0731L51.4261 62.4686L58.276 58.4209Z" fill="#EB8F35"/>
<path fill-rule="evenodd" clip-rule="evenodd" d="M50.8025 48.4482L50.0239 61.6812L52.3593 54.909L50.8025 48.4482Z" fill="#EA8E3A"/>
<path fill-rule="evenodd" clip-rule="evenodd" d="M65.4371 58.5767L58.2759 58.4209L59.5213 68.0731L65.4371 58.5767Z" fill="#D87C30"/>
<path fill-rule="evenodd" clip-rule="evenodd" d="M72.7541 72.278L59.5215 68.0745L65.4373 58.5781L76.1791 59.3564L72.7541 72.278Z" fill="#EB8F35"/>
<path fill-rule="evenodd" clip-rule="evenodd" d="M51.7384 36.3193L58.4325 41.9238L63.5701 48.151L50.8043 48.6182L51.7384 36.3193Z" fill="#E8821E"/>
<path fill-rule="evenodd" clip-rule="evenodd" d="M54.2291 51.2559L52.5165 54.8366L58.5881 53.2798L54.2291 51.2559Z" fill="#393939"/>
<path fill-rule="evenodd" clip-rule="evenodd" d="M72.911 20.2822L51.7385 36.3171L55.319 27.599L72.911 20.2822Z" fill="#E88F35"/>
<path fill-rule="evenodd" clip-rule="evenodd" d="M72.9108 20.2822L75.713 28.8446L74.1562 38.1854L75.246 38.8081L73.6892 40.2092L74.9346 41.299L73.2221 42.8558L74.3119 43.7899L71.821 46.9035L60.145 43.3228C54.4368 38.7562 51.6345 36.421 51.7383 36.3173C51.8421 36.2135 58.8996 30.8685 72.9108 20.2822Z" fill="#8E5A30"/>
</g>
<defs>
<clipPath id="clip0_1250_4483">
<rect width="92" height="92" fill="white" transform="translate(0.5)"/>
</clipPath>
</defs>
</svg>
