<svg width="29" height="29" viewBox="0 0 29 29" fill="none" xmlns="http://www.w3.org/2000/svg">
<g clip-path="url(#clip0_1250_4020)">
<path d="M14.5735 0.495544C6.84149 0.495544 0.573486 6.76355 0.573486 14.4955C0.573486 22.2275 6.84149 28.4955 14.5735 28.4955C22.3055 28.4955 28.5735 22.2275 28.5735 14.4955C28.5735 6.76355 22.3055 0.495544 14.5735 0.495544ZM21.8501 9.35142L19.3636 21.2221C19.3335 21.3657 19.2679 21.4994 19.1726 21.611C19.0774 21.7225 18.9556 21.8084 18.8185 21.8606C18.6814 21.9128 18.5334 21.9298 18.3881 21.9099C18.2428 21.89 18.1047 21.8339 17.9868 21.7467L14.3699 19.0746L12.1787 21.1418C12.15 21.1689 12.1163 21.19 12.0793 21.2038C12.0424 21.2177 12.0031 21.224 11.9637 21.2226C11.9243 21.2211 11.8856 21.2117 11.8498 21.1951C11.8141 21.1785 11.782 21.1549 11.7554 21.1257L11.7084 21.074L12.0891 17.3894L18.9515 11.1195C18.9854 11.0885 19.0065 11.046 19.0106 11.0002C19.0147 10.9545 19.0016 10.9088 18.9737 10.8723C18.9458 10.8358 18.9052 10.8111 18.86 10.803C18.8148 10.7949 18.7682 10.8041 18.7294 10.8287L9.95321 16.3833L6.17349 15.1139C6.07299 15.0801 5.98539 15.0161 5.92273 14.9306C5.86006 14.8451 5.82539 14.7423 5.82347 14.6362C5.82156 14.5302 5.85249 14.4262 5.91202 14.3385C5.97155 14.2508 6.05677 14.1836 6.15599 14.1463L20.9446 8.57529C21.0587 8.53237 21.1822 8.52087 21.3022 8.54201C21.4223 8.56315 21.5344 8.61615 21.627 8.69547C21.7195 8.77479 21.789 8.87751 21.8283 8.9929C21.8676 9.1083 21.8751 9.23212 21.8501 9.35142Z" fill="#1F1F1F"/>
</g>
<defs>
<clipPath id="clip0_1250_4020">
<rect width="28" height="28" fill="white" transform="translate(0.573486 0.495544)"/>
</clipPath>
</defs>
</svg>
