<svg width="40" height="40" viewBox="0 0 40 40" fill="none" xmlns="http://www.w3.org/2000/svg">
<rect width="40" height="40" rx="20" fill="#FDF4FD"/>
<path d="M18.9867 24C18.2027 24 17.5914 23.9627 17.1527 23.888C16.714 23.804 16.4014 23.72 16.2147 23.636C16.028 23.5427 15.9114 23.4773 15.8647 23.44L16.5647 21.928C16.7514 21.9467 17.0267 21.97 17.3907 21.998C17.7547 22.0167 18.254 22.0353 18.8887 22.054C19.5234 22.0727 20.3354 22.082 21.3247 22.082C21.7354 22.082 21.9967 22.012 22.1087 21.872C22.2207 21.7227 22.2767 21.5593 22.2767 21.382L22.2767 21.326C22.2767 21.1113 22.2207 20.9387 22.1087 20.808C21.9967 20.6773 21.7774 20.612 21.4507 20.612L17.6427 20.612L17.6427 18.946L21.0307 18.946C21.2827 18.946 21.4787 18.904 21.6187 18.82C21.768 18.736 21.8427 18.5727 21.8427 18.33L21.8427 18.176C21.8427 17.98 21.8007 17.8307 21.7167 17.728C21.6327 17.616 21.4554 17.56 21.1847 17.56L20.6387 17.56C20.0414 17.56 19.4674 17.574 18.9167 17.602C18.366 17.63 17.8807 17.6673 17.4607 17.714C17.05 17.7513 16.7327 17.7933 16.5087 17.84L16.3687 16.048C16.434 16.0293 16.6674 15.9873 17.0687 15.922C17.4794 15.8473 18.0254 15.782 18.7067 15.726C19.388 15.6607 20.172 15.628 21.0587 15.628L21.4367 15.628C22.2207 15.628 22.8367 15.7213 23.2847 15.908C23.742 16.0853 24.0687 16.3373 24.2647 16.664C24.4607 16.9907 24.5587 17.378 24.5587 17.826L24.5587 18.064C24.5587 18.344 24.5074 18.582 24.4047 18.778C24.302 18.9647 24.1854 19.1093 24.0547 19.212C23.924 19.3147 23.812 19.3847 23.7187 19.422C24.568 19.674 24.9927 20.2993 24.9927 21.298L24.9927 21.494C24.9927 22.2687 24.7547 22.88 24.2787 23.328C23.812 23.776 23.0094 24 21.8707 24L18.9867 24Z" fill="#FF0083"/>
</svg>
