<svg width="192" height="127" viewBox="0 0 192 127" fill="none" xmlns="http://www.w3.org/2000/svg">
<g clip-path="url(#clip0_1250_4522)">
<path fill-rule="evenodd" clip-rule="evenodd" d="M96 0C121.408 0 142 20.5922 142 46C142 71.4078 121.408 92 96 92C70.5922 92 50 71.4078 50 46C50 20.5922 70.5922 0 96 0Z" fill="white"/>
<path d="M79.2357 35.5287C88.4896 26.4904 103.511 26.4904 112.765 35.5287L113.879 36.6248C114.347 37.074 114.347 37.8107 113.879 38.2599L110.07 41.9795C109.836 42.2131 109.459 42.2131 109.226 41.9795L107.698 40.4881C101.229 34.181 90.7716 34.181 84.3029 40.4881L82.6677 42.0873C82.4341 42.3209 82.0568 42.3209 81.8232 42.0873L78.0138 38.3677C77.5466 37.9185 77.5466 37.1818 78.0138 36.7326L79.2357 35.5287ZM120.654 43.2193L124.05 46.5255C124.517 46.9748 124.517 47.7115 124.05 48.1607L108.758 63.0927C108.291 63.5419 107.536 63.5419 107.087 63.0927L96.2341 52.4912C96.1263 52.3833 95.9287 52.3833 95.8209 52.4912L84.9677 63.0927C84.5006 63.5419 83.7459 63.5419 83.2966 63.0927L67.9513 48.1607C67.4842 47.7115 67.4842 46.9748 67.9513 46.5255L71.3474 43.2193C71.8146 42.7701 72.5693 42.7701 73.0185 43.2193L83.8716 53.8208C83.9795 53.9286 84.1771 53.9286 84.2849 53.8208L95.138 43.2193C95.6052 42.7701 96.3599 42.7701 96.8091 43.2193L107.662 53.8208C107.77 53.9286 107.968 53.9286 108.076 53.8208L118.929 43.2193C119.432 42.7701 120.186 42.7701 120.654 43.2193Z" fill="#0270FF"/>
</g>
<path d="M5.7998 120L0.424805 105.325H3.9248L7.4498 114.925L8.0248 117.35H8.2748L8.5998 115.65L11.9248 105.325H16.1748L19.6498 115.65L20.0998 117.35H20.3498L20.9248 114.925L24.1998 105.325H27.6998L27.4498 106.825L22.2998 120H18.0498L14.6498 110.175L14.1498 108.575H13.8998L13.4248 110.175L10.0498 120H5.7998ZM31.682 120C30.4154 120 29.4987 119.708 28.932 119.125C28.3654 118.525 28.082 117.708 28.082 116.675C28.082 115.592 28.3737 114.758 28.957 114.175C29.557 113.592 30.4654 113.3 31.682 113.3H32.957C34.207 113.3 35.332 113.333 36.332 113.4C37.332 113.467 38.157 113.533 38.807 113.6V111.95C38.807 111.8 38.7904 111.65 38.757 111.5C38.7237 111.333 38.6237 111.2 38.457 111.1C38.2904 111 38.007 110.95 37.607 110.95H36.357C34.5404 110.95 33.0237 110.983 31.807 111.05C30.5904 111.1 29.7654 111.15 29.332 111.2L29.057 109.3C29.057 109.067 29.6904 108.925 30.957 108.875C32.2237 108.825 34.3404 108.8 37.307 108.8H38.557C39.3904 108.8 40.032 108.917 40.482 109.15C40.932 109.383 41.2487 109.675 41.432 110.025C41.632 110.375 41.7487 110.733 41.782 111.1C41.832 111.45 41.857 111.75 41.857 112V120H39.807L38.832 119.5C38.132 119.617 37.2904 119.733 36.307 119.85C35.3237 119.95 34.1987 120 32.932 120H31.682ZM32.332 117.85H38.057C38.4237 117.85 38.6404 117.817 38.707 117.75C38.7737 117.683 38.807 117.475 38.807 117.125V115.2H32.332C31.882 115.2 31.5654 115.308 31.382 115.525C31.2154 115.742 31.132 116.083 31.132 116.55C31.132 117.017 31.232 117.35 31.432 117.55C31.632 117.75 31.932 117.85 32.332 117.85ZM44.9912 120V106.15L44.7412 104.15H48.0412V120H44.9912ZM51.29 120V106.15L51.04 104.15H54.34V120H51.29ZM60.3889 120C59.5555 120 58.9139 119.892 58.4639 119.675C58.0139 119.458 57.6889 119.183 57.4889 118.85C57.3055 118.517 57.1889 118.167 57.1389 117.8C57.1055 117.433 57.0889 117.1 57.0889 116.8V112C57.0889 111.75 57.1055 111.45 57.1389 111.1C57.1889 110.733 57.3055 110.375 57.4889 110.025C57.6889 109.675 58.0139 109.383 58.4639 109.15C58.9305 108.917 59.5722 108.8 60.3889 108.8H65.7639C66.8639 108.8 67.7222 108.908 68.3389 109.125C68.9722 109.325 69.4139 109.658 69.6639 110.125C69.9305 110.592 70.0639 111.217 70.0639 112V115.7H65.6889C64.1889 115.7 62.9639 115.667 62.0139 115.6C61.0805 115.533 60.4555 115.492 60.1389 115.475V116.85C60.1222 117.517 60.5222 117.85 61.3389 117.85H62.6139C63.5139 117.85 64.3889 117.842 65.2389 117.825C66.1055 117.792 66.8972 117.758 67.6139 117.725C68.3305 117.675 68.9055 117.633 69.3389 117.6L70.3389 119.225C70.3389 119.742 68.6972 120 65.4139 120H60.3889ZM60.1389 113.55H67.0139V111.95C67.0139 111.617 66.9722 111.383 66.8889 111.25C66.8222 111.117 66.6055 111.033 66.2389 111C65.8722 110.967 65.2472 110.95 64.3639 110.95H61.3389C60.5389 110.95 60.1389 111.283 60.1389 111.95V113.55ZM77.1918 120C75.9251 120 75.0585 119.733 74.5918 119.2C74.1251 118.667 73.8918 117.867 73.8918 116.8V110.95H71.8418V108.8H72.8918C73.2085 108.8 73.4335 108.75 73.5668 108.65C73.7168 108.55 73.8251 108.35 73.8918 108.05L74.3918 105.375H76.9418V108.8H82.1418V110.95H76.9418V116.825C76.9418 117.242 77.0418 117.517 77.2418 117.65C77.4418 117.783 77.7418 117.85 78.1418 117.85H81.6668L81.9168 119.75C81.5668 119.8 81.0335 119.858 80.3168 119.925C79.6001 119.975 78.8168 120 77.9668 120H77.1918ZM88.9705 120C87.7872 120 86.8622 119.833 86.1955 119.5C85.5288 119.167 85.0622 118.667 84.7955 118C84.5288 117.333 84.3955 116.508 84.3955 115.525V109.95C84.3955 108.35 84.7538 107.175 85.4705 106.425C86.1872 105.658 87.3538 105.275 88.9705 105.275H96.4955C97.6455 105.275 98.5205 105.342 99.1205 105.475C99.7372 105.592 100.046 105.717 100.046 105.85L99.5455 107.925C99.2622 107.875 98.4205 107.825 97.0205 107.775C95.6372 107.708 93.6205 107.675 90.9705 107.675H89.6955C88.3622 107.675 87.6955 108.267 87.6955 109.45V115.825C87.6955 116.392 87.8372 116.833 88.1205 117.15C88.4205 117.45 88.9455 117.6 89.6955 117.6H90.7205C93.4872 117.6 95.6288 117.575 97.1455 117.525C98.6788 117.458 99.6288 117.392 99.9955 117.325L101.021 118.975C101.021 119.058 100.879 119.183 100.596 119.35C100.329 119.517 99.8288 119.667 99.0955 119.8C98.3622 119.933 97.3038 120 95.9205 120H88.9705ZM106.068 120C104.951 120 104.118 119.775 103.568 119.325C103.034 118.875 102.768 118.142 102.768 117.125V112C102.768 111.75 102.784 111.45 102.818 111.1C102.868 110.733 102.984 110.375 103.168 110.025C103.368 109.675 103.693 109.383 104.143 109.15C104.609 108.917 105.251 108.8 106.068 108.8H112.968C113.801 108.8 114.443 108.917 114.893 109.15C115.343 109.383 115.659 109.675 115.843 110.025C116.043 110.375 116.159 110.733 116.193 111.1C116.243 111.45 116.268 111.75 116.268 112V116.8C116.268 117.1 116.243 117.433 116.193 117.8C116.159 118.167 116.043 118.517 115.843 118.85C115.643 119.183 115.318 119.458 114.868 119.675C114.418 119.892 113.784 120 112.968 120H106.068ZM107.018 117.85H112.018C112.834 117.85 113.243 117.517 113.243 116.85V111.95C113.243 111.283 112.834 110.95 112.018 110.95H107.018C106.218 110.95 105.818 111.283 105.818 111.95V116.85C105.818 117.517 106.218 117.85 107.018 117.85ZM119.009 120V108.8H121.059L122.059 109.3C122.759 109.167 123.6 109.05 124.584 108.95C125.567 108.85 126.692 108.8 127.959 108.8H129.209C130.042 108.8 130.684 108.917 131.134 109.15C131.584 109.383 131.9 109.675 132.084 110.025C132.284 110.375 132.4 110.733 132.434 111.1C132.484 111.45 132.509 111.75 132.509 112V120H129.459V111.95C129.459 111.283 129.059 110.95 128.259 110.95H122.809C122.492 110.95 122.284 110.983 122.184 111.05C122.1 111.1 122.059 111.25 122.059 111.5V120H119.009ZM135.391 120V108.8H137.441L138.441 109.3C139.141 109.167 139.982 109.05 140.966 108.95C141.949 108.85 143.074 108.8 144.341 108.8H145.591C146.424 108.8 147.066 108.917 147.516 109.15C147.966 109.383 148.282 109.675 148.466 110.025C148.666 110.375 148.782 110.733 148.816 111.1C148.866 111.45 148.891 111.75 148.891 112V120H145.841V111.95C145.841 111.283 145.441 110.95 144.641 110.95H139.191C138.874 110.95 138.666 110.983 138.566 111.05C138.482 111.1 138.441 111.25 138.441 111.5V120H135.391ZM154.822 120C153.989 120 153.347 119.892 152.897 119.675C152.447 119.458 152.122 119.183 151.922 118.85C151.739 118.517 151.622 118.167 151.572 117.8C151.539 117.433 151.522 117.1 151.522 116.8V112C151.522 111.75 151.539 111.45 151.572 111.1C151.622 110.733 151.739 110.375 151.922 110.025C152.122 109.675 152.447 109.383 152.897 109.15C153.364 108.917 154.006 108.8 154.822 108.8H160.197C161.297 108.8 162.156 108.908 162.772 109.125C163.406 109.325 163.847 109.658 164.097 110.125C164.364 110.592 164.497 111.217 164.497 112V115.7H160.122C158.622 115.7 157.397 115.667 156.447 115.6C155.514 115.533 154.889 115.492 154.572 115.475V116.85C154.556 117.517 154.956 117.85 155.772 117.85H157.047C157.947 117.85 158.822 117.842 159.672 117.825C160.539 117.792 161.331 117.758 162.047 117.725C162.764 117.675 163.339 117.633 163.772 117.6L164.772 119.225C164.772 119.742 163.131 120 159.847 120H154.822ZM154.572 113.55H161.447V111.95C161.447 111.617 161.406 111.383 161.322 111.25C161.256 111.117 161.039 111.033 160.672 111C160.306 110.967 159.681 110.95 158.797 110.95H155.772C154.972 110.95 154.572 111.283 154.572 111.95V113.55ZM170.325 120C169.492 120 168.85 119.892 168.4 119.675C167.95 119.458 167.625 119.183 167.425 118.85C167.242 118.517 167.125 118.167 167.075 117.8C167.042 117.433 167.025 117.1 167.025 116.8V112C167.025 111.75 167.042 111.45 167.075 111.1C167.125 110.733 167.242 110.375 167.425 110.025C167.625 109.675 167.95 109.383 168.4 109.15C168.867 108.917 169.509 108.8 170.325 108.8H173.8C175.884 108.8 177.359 108.858 178.225 108.975C179.109 109.075 179.55 109.183 179.55 109.3L179.05 111.2C178.584 111.167 177.992 111.133 177.275 111.1C176.559 111.05 175.784 111.017 174.95 111C174.134 110.967 173.334 110.95 172.55 110.95H171.275C170.475 110.95 170.075 111.283 170.075 111.95V116.85C170.059 117.517 170.459 117.85 171.275 117.85H172.55C173.45 117.85 174.325 117.842 175.175 117.825C176.042 117.792 176.834 117.758 177.55 117.725C178.267 117.675 178.842 117.633 179.275 117.6L180.275 119.225C180.275 119.742 178.634 120 175.35 120H170.325ZM186.371 120C185.105 120 184.238 119.733 183.771 119.2C183.305 118.667 183.071 117.867 183.071 116.8V110.95H181.021V108.8H182.071C182.388 108.8 182.613 108.75 182.746 108.65C182.896 108.55 183.005 108.35 183.071 108.05L183.571 105.375H186.121V108.8H191.321V110.95H186.121V116.825C186.121 117.242 186.221 117.517 186.421 117.65C186.621 117.783 186.921 117.85 187.321 117.85H190.846L191.096 119.75C190.746 119.8 190.213 119.858 189.496 119.925C188.78 119.975 187.996 120 187.146 120H186.371Z" fill="#171515"/>
<defs>
<clipPath id="clip0_1250_4522">
<rect width="92" height="92" fill="white" transform="translate(50)"/>
</clipPath>
</defs>
</svg>
