<svg width="16" height="16" viewBox="0 0 16 16" fill="none" xmlns="http://www.w3.org/2000/svg">
<path d="M10.6663 8.59992V11.3999C10.6663 13.7333 9.73301 14.6666 7.39967 14.6666H4.59967C2.26634 14.6666 1.33301 13.7333 1.33301 11.3999V8.59992C1.33301 6.26658 2.26634 5.33325 4.59967 5.33325H7.39967C9.73301 5.33325 10.6663 6.26658 10.6663 8.59992Z" stroke="#777E90" stroke-width="1.5" stroke-linecap="round" stroke-linejoin="round"/>
<path d="M14.6663 4.59992V7.39992C14.6663 9.73325 13.733 10.6666 11.3997 10.6666H10.6663V8.59992C10.6663 6.26658 9.73301 5.33325 7.39967 5.33325H5.33301V4.59992C5.33301 2.26659 6.26634 1.33325 8.59967 1.33325H11.3997C13.733 1.33325 14.6663 2.26659 14.6663 4.59992Z" stroke="#777E90" stroke-width="1.5" stroke-linecap="round" stroke-linejoin="round"/>
</svg>
