<svg width="139" height="36" viewBox="0 0 139 36" fill="none" xmlns="http://www.w3.org/2000/svg">
<path d="M35.9606 20.6386C34.5313 30.4235 25.4061 37.2399 15.6213 35.8106C5.83644 34.3814 -0.97997 25.1462 0.449276 15.3614C1.87852 5.57655 11.0037 -1.23986 20.7886 0.189389C30.5734 1.72858 37.3898 10.8538 35.9606 20.6386Z" fill="#9F9F9F"/>
<path d="M26.2857 7.22577C22.6576 4.91699 20.019 9.97432 20.019 10.0843C19.3593 11.2936 18.8096 13.2726 18.4798 14.7018L13.7523 14.0422L13.5324 15.3615L18.15 16.0211C18.04 16.6808 17.9301 17.1206 17.9301 17.1206L17.7102 18.5498V18.6597L13.0926 18.0001L12.8727 19.3194L17.4903 19.979C16.2809 26.0259 15.4014 27.8949 14.5219 28.8844C14.302 29.1042 13.0926 29.9838 12.433 28.4446C11.9932 27.3452 11.1137 27.565 11.1137 27.565C10.8938 27.565 9.79436 28.2247 11.5534 29.4341C15.1815 31.7428 17.8201 26.6855 17.8201 26.5756C18.4798 25.3662 19.3593 21.958 19.6891 20.4188L24.4167 21.0785L24.6365 19.7592L19.909 19.0995C20.019 18.4399 20.1289 18.0001 20.1289 18.0001L20.3488 16.5708V16.4609L24.9664 17.1206L25.1863 15.8012L20.5687 15.1416C21.778 9.09478 22.3278 8.76496 23.2073 7.66554C23.4272 7.44565 24.6365 6.56612 25.2962 8.1053C25.736 9.20472 26.6155 8.98484 26.6155 8.98484C26.9453 9.09478 28.0447 8.32519 26.2857 7.22577Z" fill="#FEFEFE"/>
<path fill-rule="evenodd" clip-rule="evenodd" d="M58.2055 16.5973H49.5572V9.36242H58.4938L58.638 7.14765H47.1069V28.557H49.5572V18.6644H58.2055V16.5973ZM63.827 7.14765H61.5207V9.95302H63.827V7.14765ZM63.827 12.7584H61.5207V28.557H63.827V12.7584ZM70.1691 7L67.8628 7.2953V21.9128C67.8628 27.0805 68.007 29 71.7546 29C72.3311 29 72.7636 28.8524 73.3401 28.8524L73.196 26.7852C72.4753 26.7852 72.3311 26.9329 71.8987 26.9329C70.3132 26.9329 70.1691 25.8993 70.1691 22.5034V7ZM81.7001 28.8524C77.376 28.8524 74.6373 25.604 74.6373 20.5839C74.6373 15.8591 77.376 12.4631 81.4119 12.3154C85.1595 12.3154 87.6098 15.2685 87.6098 19.8456C87.6098 20.1409 87.6098 20.7315 87.6098 20.8792H77.0877C77.0877 24.4228 79.1056 26.6376 81.8443 26.6376C83.5739 26.6376 85.3036 26.047 86.745 25.0134L87.4657 26.7852C86.0243 28.1141 84.1505 28.8524 81.7001 28.8524ZM77.0877 19.4027H85.3036C85.3036 16.0067 83.7181 14.3826 81.4119 14.3826C79.1056 14.3826 77.376 16.4497 77.0877 19.4027ZM101.303 27.5235C100.294 28.557 98.7085 29 97.123 29C92.3664 29 89.7719 25.1611 89.7719 20.7315C89.7719 16.302 92.5105 12.4631 97.123 12.4631C98.8526 12.4631 100.438 13.0537 101.303 13.7919L100.726 15.5638C99.7175 14.8255 98.4202 14.5302 97.123 14.5302C94.3843 14.5302 92.2223 17.1879 92.2223 20.8792C92.2223 24.5705 94.2402 27.0805 97.4113 27.0805C98.7085 27.0805 99.8616 26.6376 100.871 25.8993L101.303 27.5235ZM114.996 20.7315C114.996 17.3356 113.843 14.3826 110.384 14.3826C107.069 14.3826 105.627 17.4832 105.627 20.7315C105.627 23.9799 107.213 26.9329 110.528 26.9329C113.843 26.9329 114.996 23.9799 114.996 20.7315ZM117.447 20.7315C117.447 25.0134 114.996 29 110.384 29C105.771 29 103.177 25.3087 103.177 20.8792C103.177 16.4497 105.771 12.6107 110.528 12.6107C114.996 12.4631 117.447 16.1544 117.447 20.7315ZM123.068 7.14765H120.762V9.95302H123.068V7.14765ZM123.068 12.7584H120.762V28.557H123.068V12.7584ZM134.167 12.4631C132.005 12.4631 129.842 13.4966 128.689 15.1208L128.545 12.7584H126.527V16.5973V28.557H128.833V17.7785C129.266 16.302 130.996 14.5302 133.59 14.5302C136.473 14.5302 136.617 16.5973 136.617 20.7315V28.557H138.923V19.1074C139.067 14.6779 137.626 12.4631 134.167 12.4631Z" fill="#9F9F9F"/>
</svg>
