<svg width="108" height="35" viewBox="0 0 108 35" fill="none" xmlns="http://www.w3.org/2000/svg">
<path d="M18.2705 0C27.9296 0.113636 35.6569 7.95455 35.6569 17.6136C35.6569 27.2727 27.7023 35 18.0432 35C8.49777 34.8864 0.65686 27.1591 0.65686 17.5C0.65686 7.72727 8.49777 0 18.2705 0Z" fill="#9F9F9F"/>
<path d="M20.3284 27.5171L18.2829 28.6535L13.9647 26.1535L15.8965 25.0171H16.0102L20.3284 27.5171Z" fill="white"/>
<path d="M27.9422 11.9489V14.2216L23.7376 11.7216L22.6012 11.0398L21.4649 11.7216L16.124 14.7898L14.9876 15.4716V16.8353L12.9422 15.5853L11.8058 14.9034L10.6694 15.5853L8.73761 16.7216V11.7216L18.3967 6.15344L27.9422 11.9489Z" fill="white"/>
<path d="M27.9421 16.9489V23.1989L22.6012 26.267L17.2603 23.1989V16.9489L22.6012 13.8807L27.9421 16.9489Z" fill="white"/>
<path d="M14.7603 19.5626V23.0853L11.6921 24.9035L8.62396 23.0853V19.5626L11.6921 17.7444L14.7603 19.5626Z" fill="white"/>
<path d="M50.1123 10.955V16.4142H60.0006V20.2253H50.1123V27.7445H45.1682V7.14386H61.3397V10.955H50.1123Z" fill="#9F9F9F"/>
<path d="M63.5027 7.14392H68.2409V27.6416H63.5027V7.14392Z" fill="#9F9F9F"/>
<path d="M88.6356 11.1612V27.6417H84.1035V25.6847C82.7645 27.1267 80.9104 27.9508 78.9533 27.8477C74.8332 27.8477 71.9491 25.4787 71.9491 20.4315V11.1612H76.6873V19.8135C76.6873 22.5946 77.9233 23.8306 79.9834 23.8306C82.1464 23.8306 83.7945 22.3886 83.7945 19.4015V11.2642H88.6356V11.1612Z" fill="#9F9F9F"/>
<path d="M102.438 27.6417L98.8326 22.5946L95.1245 27.6417H89.8713L96.2575 19.2985L90.1803 11.1612H95.5365L99.0386 16.0024L102.644 11.1612H107.691L101.614 19.1955L108 27.6417H102.438Z" fill="#9F9F9F"/>
</svg>
