<svg width="28" height="28" viewBox="0 0 28 28" fill="none" xmlns="http://www.w3.org/2000/svg">
<g clip-path="url(#clip0_1236_764)">
<path fill-rule="evenodd" clip-rule="evenodd" d="M28 14C28 21.732 21.732 28 14 28C6.26801 28 0 21.732 0 14C0 6.26801 6.26801 0 14 0C21.732 0 28 6.26801 28 14ZM16.3898 7.63437C18.5445 7.79843 20.3656 9.22577 20.3656 9.22577C20.3656 9.22577 22.4 12.1789 22.7609 17.9758C20.7102 20.3437 17.593 20.3601 17.593 20.3601L16.9422 19.4906C18.0469 19.1078 19.2992 18.4187 20.3766 17.1773C19.0859 18.1562 17.1445 19.168 14.0109 19.168C10.8773 19.168 8.93047 18.1508 7.64532 17.1773C8.72266 18.4187 9.975 19.1078 11.0797 19.4906L10.4289 20.3601C10.4289 20.3601 7.31172 20.3437 5.26094 17.9758C5.61094 12.1789 7.64532 9.22577 7.64532 9.22577C7.64532 9.22577 9.3625 7.84765 11.6211 7.63437L11.8125 8.02265C10.0352 8.42187 8.97422 9.18202 8.03907 10.0187C9.64688 9.19843 11.2383 8.42734 14.0055 8.42734C16.7727 8.42734 18.3641 9.19843 19.9719 10.0187C19.0367 9.18202 18.1453 8.49843 16.1984 8.02265L16.3898 7.63437ZM10.0188 14.793C10.0188 15.6734 10.6422 16.3844 11.4133 16.3844C12.1844 16.3844 12.8078 15.6734 12.8078 14.793C12.8078 13.9125 12.1844 13.2016 11.4133 13.2016C10.6422 13.2016 10.0188 13.9125 10.0188 14.793ZM15.1922 14.793C15.1922 15.6734 15.8156 16.3844 16.5867 16.3844C17.3523 16.3844 17.9813 15.6734 17.9813 14.793C17.9813 13.9125 17.3578 13.2016 16.5867 13.2016C15.8156 13.2016 15.1922 13.9125 15.1922 14.793Z" fill="#1F1F1F"/>
</g>
<defs>
<clipPath id="clip0_1236_764">
<rect width="28" height="28" fill="white"/>
</clipPath>
</defs>
</svg>
