<svg width="28" height="28" viewBox="0 0 28 28" fill="none" xmlns="http://www.w3.org/2000/svg">
<path fill-rule="evenodd" clip-rule="evenodd" d="M14.0214 0.050354C21.7316 0.050354 27.9914 6.30987 27.9914 14.0201C27.9914 21.7303 21.7316 27.9901 14.0214 27.9901C6.31124 27.9901 0.0517273 21.7303 0.0517273 14.0201C0.0517273 6.30987 6.31124 0.050354 14.0214 0.050354ZM17.8375 10.1715L17.9117 10.2666C17.9485 10.3142 17.9844 10.3606 18.0161 10.4031C18.0445 10.4597 18.1011 10.5164 18.1294 10.6013C18.179 10.6758 18.2231 10.75 18.2665 10.8245L18.3038 10.8879C18.3472 10.9624 18.3913 11.0369 18.4409 11.111C18.4692 11.196 18.5259 11.2809 18.5542 11.3659C18.6674 11.5924 18.7524 11.819 18.7807 12.0738C18.809 12.1305 18.809 12.1871 18.809 12.2154C18.8373 12.272 18.8373 12.357 18.8373 12.4419C18.8657 12.6968 18.8373 12.9233 18.809 13.1782C18.7985 13.2207 18.7878 13.2592 18.7773 13.2966L18.7561 13.3713C18.7453 13.4087 18.7348 13.4472 18.7241 13.4897C18.6958 13.5746 18.6674 13.6879 18.6108 13.8012C18.5259 13.9994 18.4126 14.1976 18.2993 14.3958C18.271 14.4525 18.2144 14.5374 18.1577 14.6224C18.1011 14.7073 18.0445 14.764 18.0161 14.8489C17.9595 14.9339 17.8746 15.0188 17.8179 15.1038C17.7613 15.1887 17.7047 15.2737 17.6197 15.3586C17.5348 15.4719 17.4215 15.5852 17.3365 15.6984C17.2799 15.7551 17.2233 15.84 17.1383 15.8966C17.0817 15.9533 17.025 16.0382 16.9401 16.0949C16.8551 16.1798 16.7702 16.2648 16.6852 16.3214L16.5153 16.463C16.487 16.4913 16.4587 16.4913 16.4304 16.4913H15.1844V18.0771H16.7419C17.0817 18.0771 17.4215 17.9638 17.6763 17.7373C17.7613 17.6523 18.1577 17.3125 18.6391 16.8028C18.6674 16.7745 18.6674 16.7745 18.6958 16.7745L23 15.5285C23.1699 15.4436 23.2265 15.5002 23.2265 15.5852V16.4913C23.2265 16.5479 23.1982 16.5763 23.1416 16.6046C22.8584 16.7178 21.8673 17.1709 21.4708 17.7373C20.4231 19.1814 19.6302 21.2486 17.8746 21.2486H10.4838C7.87859 21.2486 5.75481 19.1248 5.75481 16.4913V16.4064C5.75481 16.3497 5.81144 16.2931 5.86807 16.2931H10.0307C10.1157 16.2931 10.1723 16.378 10.1723 16.4347C10.144 16.6895 10.2006 16.9727 10.3139 17.2276C10.5687 17.7373 11.0784 18.0204 11.6165 18.0204H13.6553V16.4347H11.6448C11.5315 16.4347 11.4749 16.3214 11.5315 16.2365C11.5598 16.2081 11.5881 16.1798 11.6165 16.1232C11.8147 15.84 12.0695 15.4436 12.3527 14.9622C12.5509 14.6507 12.7208 14.2826 12.8624 13.9428C12.8907 13.8861 12.9191 13.8295 12.9474 13.7445C12.9757 13.6313 13.0323 13.518 13.0606 13.4331C13.089 13.3481 13.1173 13.2631 13.1456 13.1782C13.2022 12.895 13.2305 12.5835 13.2305 12.2437C13.2305 12.1305 13.2305 11.9889 13.2022 11.8473C13.2022 11.7853 13.1968 11.7233 13.1906 11.6615L13.1855 11.6083C13.1793 11.5463 13.1739 11.4845 13.1739 11.4225C13.1739 11.3093 13.1456 11.1677 13.1173 11.0544C13.089 10.8562 13.0606 10.6863 13.004 10.4881L12.9757 10.4314C12.9474 10.3182 12.9191 10.1766 12.8624 10.0633C12.7491 9.66687 12.6076 9.27043 12.466 8.93062C12.4093 8.78903 12.3527 8.64745 12.2961 8.50586C12.2111 8.30764 12.1262 8.10942 12.0412 7.93952C12.0129 7.85457 11.9563 7.79793 11.928 7.71298C11.8996 7.62803 11.843 7.54308 11.8147 7.45813C11.7864 7.40149 11.758 7.34486 11.7297 7.28822L11.4749 6.83515C11.4466 6.77851 11.5032 6.69356 11.5598 6.72188L13.1173 7.14664L13.3155 7.20327L13.542 7.25991L13.627 7.28822V6.35376C13.627 5.90068 13.9951 5.53256 14.4199 5.53256C14.6464 5.53256 14.8446 5.61751 14.9862 5.7591C15.1278 5.90068 15.2127 6.0989 15.2127 6.32544V7.68466L15.3826 7.7413C15.3826 7.7413 15.411 7.7413 15.411 7.76962C15.4393 7.79793 15.4959 7.85457 15.5809 7.9112C15.6375 7.96784 15.6941 8.02447 15.7791 8.08111C15.9207 8.19437 16.1189 8.36428 16.3171 8.53418C16.3737 8.59081 16.4304 8.61913 16.4587 8.67577C16.7136 8.9023 16.9967 9.18547 17.2799 9.49696C17.3648 9.58191 17.4215 9.66687 17.5064 9.75182C17.5914 9.83677 17.648 9.95004 17.733 10.035C17.765 10.0775 17.8006 10.1239 17.8375 10.1715ZM6.83086 14.5091L6.88749 14.4242L10.5687 8.67577C10.6254 8.59081 10.7386 8.59081 10.7953 8.70408C11.4182 10.0916 11.928 11.7907 11.7014 12.8667C11.5881 13.3198 11.305 13.9144 10.9652 14.4525C10.9368 14.5374 10.8802 14.6224 10.8236 14.679C10.7953 14.7073 10.7669 14.7356 10.7103 14.7356H6.91581C6.83086 14.7073 6.77422 14.5941 6.83086 14.5091Z" fill="#1F1F1F"/>
</svg>
