<svg width="28" height="28" viewBox="0 0 28 28" fill="none" xmlns="http://www.w3.org/2000/svg">
<g clip-path="url(#clip0_1236_768)">
<path d="M14 0C6.26801 0 0 6.26801 0 14C0 21.732 6.26801 28 14 28C21.732 28 28 21.732 28 14C28 6.26801 21.732 0 14 0ZM21.2767 8.85588L18.7901 20.7266C18.7601 20.8701 18.6944 21.0039 18.5991 21.1154C18.5039 21.227 18.3821 21.3128 18.245 21.3651C18.108 21.4173 17.9599 21.4342 17.8146 21.4143C17.6693 21.3944 17.5313 21.3383 17.4133 21.2512L13.7965 18.5791L11.6052 20.6463C11.5766 20.6733 11.5428 20.6944 11.5058 20.7083C11.4689 20.7221 11.4296 20.7285 11.3902 20.727C11.3508 20.7255 11.3121 20.7162 11.2763 20.6996C11.2406 20.6829 11.2085 20.6594 11.182 20.6302L11.1349 20.5785L11.5156 16.8939L18.378 10.6239C18.4119 10.593 18.433 10.5504 18.4372 10.5047C18.4413 10.4589 18.4281 10.4133 18.4002 10.3768C18.3723 10.3403 18.3318 10.3155 18.2865 10.3075C18.2413 10.2994 18.1947 10.3086 18.1559 10.3331L9.37973 15.8878L5.6 14.6184C5.4995 14.5846 5.41191 14.5206 5.34924 14.435C5.28657 14.3495 5.2519 14.2467 5.24999 14.1407C5.24807 14.0347 5.279 13.9307 5.33853 13.843C5.39807 13.7552 5.48329 13.6881 5.5825 13.6507L20.3711 8.07975C20.4852 8.03682 20.6087 8.02533 20.7287 8.04647C20.8488 8.06761 20.9609 8.12061 21.0535 8.19993C21.146 8.27925 21.2156 8.38197 21.2548 8.49736C21.2941 8.61275 21.3016 8.73657 21.2767 8.85588Z" fill="#1F1F1F"/>
</g>
<defs>
<clipPath id="clip0_1236_768">
<rect width="28" height="28" fill="white"/>
</clipPath>
</defs>
</svg>
