<svg width="19" height="18" viewBox="0 0 19 18" fill="none" xmlns="http://www.w3.org/2000/svg">
<path d="M4.7625 18H13.275C15.9 18 18.0375 15.825 18.0375 13.1625V4.8375C18 2.175 15.8625 0 13.2375 0H4.7625C2.1375 0 0 2.175 0 4.8375V13.1625C0 15.825 2.1375 18 4.7625 18ZM14.25 3C14.85 3 15.3375 3.4875 15.3375 4.125C15.3375 4.7625 14.85 5.25 14.25 5.25C13.65 5.25 13.1625 4.7625 13.1625 4.125C13.1625 3.4875 13.65 3 14.25 3ZM9 4.5C11.4375 4.5 13.3875 6.525 13.3875 9C13.3875 11.475 11.4375 13.5 9 13.5C6.5625 13.5 4.6125 11.475 4.6125 9C4.6125 6.525 6.5625 4.5 9 4.5Z" fill="#B4B4B4"/>
</svg>
