<svg width="164" height="35" viewBox="0 0 164 35" fill="none" xmlns="http://www.w3.org/2000/svg">
<path d="M163.536 15.8333V12.9501H159.975V8.46778L159.855 8.50485L156.51 9.5337L156.444 9.55392V12.9501H151.165V11.0583C151.165 10.1774 151.361 9.50317 151.747 9.05357C152.13 8.60932 152.679 8.38353 153.378 8.38353C153.881 8.38353 154.402 8.50267 154.926 8.73758L155.057 8.79646V5.76005L154.995 5.73726C154.507 5.56063 153.842 5.47162 153.018 5.47162C151.979 5.47162 151.035 5.6988 150.212 6.14919C149.388 6.60018 148.74 7.24406 148.287 8.06278C147.834 8.88051 147.605 9.82491 147.605 10.87V12.9501H145.125V15.8333H147.605V27.9795H151.165V15.8333H156.444V23.5521C156.444 26.731 157.936 28.3421 160.877 28.3421C161.36 28.3421 161.869 28.285 162.388 28.1734C162.917 28.059 163.277 27.9446 163.489 27.8225L163.536 27.7947V24.8848L163.391 24.9811C163.198 25.1108 162.957 25.2165 162.675 25.295C162.392 25.375 162.155 25.4153 161.972 25.4153C161.283 25.4153 160.773 25.2285 160.457 24.8602C160.137 24.4885 159.975 23.8383 159.975 22.929V15.8333H163.536ZM137.176 25.4156C135.884 25.4156 134.865 24.9848 134.147 24.1363C133.425 23.2835 133.059 22.0677 133.059 20.5231C133.059 18.9294 133.425 17.6821 134.147 16.8142C134.866 15.9521 135.875 15.5146 137.147 15.5146C138.381 15.5146 139.363 15.9325 140.067 16.7574C140.775 17.5864 141.134 18.8238 141.134 20.436C141.134 22.0681 140.796 23.3218 140.13 24.1603C139.469 24.9927 138.475 25.4156 137.176 25.4156ZM137.334 12.588C134.869 12.588 132.911 13.3142 131.515 14.7464C130.12 16.1789 129.413 18.1611 129.413 20.6386C129.413 22.9917 130.103 24.8845 131.465 26.2634C132.827 27.643 134.681 28.3417 136.973 28.3417C139.363 28.3417 141.282 27.6055 142.677 26.1534C144.073 24.7027 144.78 22.7394 144.78 20.3197C144.78 17.9297 144.116 16.0229 142.807 14.6531C141.498 13.2826 139.656 12.588 137.334 12.588ZM123.673 12.5879C121.996 12.5879 120.61 13.0191 119.55 13.8694C118.484 14.7245 117.943 15.8464 117.943 17.2037C117.943 17.9092 118.06 18.5361 118.29 19.0675C118.521 19.601 118.879 20.0704 119.354 20.4645C119.825 20.8554 120.553 21.265 121.517 21.6815C122.328 22.0169 122.933 22.3008 123.317 22.5244C123.692 22.7434 123.959 22.9639 124.109 23.1784C124.255 23.3883 124.33 23.6756 124.33 24.0304C124.33 25.04 123.578 25.5313 122.03 25.5313C121.456 25.5313 120.801 25.4109 120.084 25.1732C119.366 24.936 118.696 24.5948 118.091 24.1573L117.943 24.0508V27.4964L117.998 27.5218C118.501 27.7555 119.136 27.9525 119.885 28.1077C120.632 28.263 121.311 28.3421 121.9 28.3421C123.72 28.3421 125.185 27.9087 126.254 27.0535C127.33 26.1924 127.875 25.0442 127.875 23.6397C127.875 22.6267 127.582 21.7578 127.003 21.0572C126.429 20.3622 125.431 19.7243 124.04 19.1603C122.932 18.7131 122.222 18.3418 121.929 18.0569C121.646 17.7816 121.503 17.3922 121.503 16.8992C121.503 16.4621 121.68 16.112 122.043 15.8283C122.41 15.5433 122.919 15.3984 123.558 15.3984C124.151 15.3984 124.758 15.4925 125.362 15.6771C125.965 15.8616 126.494 16.1088 126.937 16.4113L127.082 16.5113V13.2427L127.026 13.2185C126.618 13.0427 126.08 12.8922 125.427 12.7701C124.776 12.6492 124.186 12.5879 123.673 12.5879ZM108.663 25.4156C107.371 25.4156 106.352 24.9848 105.635 24.1363C104.912 23.2835 104.547 22.0681 104.547 20.5231C104.547 18.9294 104.913 17.6821 105.635 16.8142C106.353 15.9521 107.362 15.5146 108.634 15.5146C109.868 15.5146 110.851 15.9325 111.555 16.7574C112.262 17.5864 112.621 18.8238 112.621 20.436C112.621 22.0681 112.283 23.3218 111.618 24.1603C110.957 24.9927 109.963 25.4156 108.663 25.4156ZM108.822 12.588C106.356 12.588 104.398 13.3142 103.003 14.7464C101.608 16.1789 100.9 18.1611 100.9 20.6386C100.9 22.9927 101.591 24.8845 102.953 26.2634C104.315 27.643 106.168 28.3417 108.461 28.3417C110.85 28.3417 112.77 27.6055 114.165 26.1534C115.56 24.7027 116.267 22.7394 116.267 20.3197C116.267 17.9297 115.604 16.0229 114.295 14.6531C112.985 13.2826 111.144 12.588 108.822 12.588ZM95.4965 15.5528V12.9501H91.9801V27.9791H95.4965V20.2913C95.4965 18.9839 95.7913 17.91 96.373 17.0988C96.9473 16.2974 97.7128 15.8912 98.6472 15.8912C98.9639 15.8912 99.3194 15.9437 99.7044 16.0476C100.086 16.1509 100.362 16.2629 100.525 16.3808L100.672 16.4885V12.9244L100.615 12.8998C100.288 12.7598 99.8245 12.6892 99.2383 12.6892C98.3548 12.6892 97.5639 12.9747 96.8866 13.5367C96.2921 14.0307 95.8623 14.7081 95.5338 15.5528H95.4965ZM85.683 12.5879C84.0699 12.5879 82.6309 12.9359 81.4068 13.6214C80.1804 14.3084 79.2319 15.2895 78.5866 16.537C77.9442 17.7816 77.618 19.2352 77.618 20.8562C77.618 22.2762 77.9343 23.5794 78.5594 24.7278C79.1848 25.8782 80.0701 26.7782 81.1907 27.4024C82.3097 28.0259 83.6029 28.3421 85.0348 28.3421C86.7059 28.3421 88.1327 28.0061 89.2767 27.3437L89.3228 27.317V24.0782L89.1751 24.1866C88.657 24.566 88.0779 24.8689 87.4548 25.0872C86.8333 25.3053 86.2666 25.4155 85.7699 25.4155C84.3901 25.4155 83.2825 24.9813 82.4784 24.1258C81.6726 23.2688 81.264 22.0657 81.264 20.5515C81.264 19.0279 81.6901 17.7939 82.5299 16.8832C83.3669 15.9752 84.4766 15.5147 85.8279 15.5147C86.9837 15.5147 88.11 15.9082 89.1755 16.6853L89.3228 16.793V13.3803L89.2753 13.3533C88.8742 13.1277 88.3275 12.9414 87.6484 12.8001C86.9725 12.6591 86.3114 12.5879 85.683 12.5879ZM75.1962 12.9502H71.6798V27.9791H75.1962V12.9502ZM73.4739 6.54769C72.8952 6.54769 72.3904 6.74573 71.9757 7.13824C71.5593 7.53194 71.3479 8.02753 71.3479 8.61233C71.3479 9.18801 71.5567 9.67449 71.969 10.0577C72.3788 10.4397 72.8851 10.6334 73.4739 10.6334C74.0625 10.6334 74.5708 10.4397 74.9854 10.0583C75.4029 9.67449 75.6144 9.18801 75.6144 8.61233C75.6144 8.04795 75.4086 7.55731 75.0026 7.1541C74.5972 6.75168 74.0828 6.54769 73.4739 6.54769ZM64.7003 11.8413V27.9791H68.2889V7.00792H63.3223L57.0091 22.5846L50.8826 7.00792H45.7137V27.9791H49.086V11.8398H49.2019L55.6713 27.9791H58.2162L64.5846 11.8413H64.7003Z" fill="#9F9F9F"/>
<path d="M17.0138 16.6309H0.471924V0H17.0138V16.6309Z" fill="#9F9F9F"/>
<path d="M35.2781 16.6309H18.7364V0H35.2781V16.6309Z" fill="#9F9F9F"/>
<path d="M17.0134 35H0.471924V18.3691H17.0134V35Z" fill="#9F9F9F"/>
<path d="M35.2781 35H18.7364V18.3691H35.2781V35Z" fill="#9F9F9F"/>
</svg>
