<svg width="30" height="30" viewBox="0 0 30 30" fill="none" xmlns="http://www.w3.org/2000/svg">
<path fill-rule="evenodd" clip-rule="evenodd" d="M12.4315 0.191875C7.16073 1.16784 2.76761 5.32943 1.14555 10.8828C0.849739 11.8957 0.745017 12.987 0.76315 14.8628C0.792844 17.8884 1.43047 20.3378 2.76126 22.5376L3.56662 23.8685L8.03772 21.1147L12.509 18.3612L12.5698 23.954L12.6305 29.5469H14.8932H17.1558V24.0257C17.1558 20.1738 17.2311 18.5045 17.4047 18.5045C17.5414 18.5045 19.5458 19.6832 21.859 21.1241C25.1093 23.1486 26.1467 23.6911 26.4269 23.5126C26.8025 23.2734 28.6453 19.7502 28.4733 19.6003C28.4198 19.5537 25.3529 17.6415 21.6582 15.351L14.9403 11.1866L10.411 14.0234C7.91985 15.5834 5.75446 16.8599 5.59896 16.8599C5.38612 16.8599 5.33852 16.2925 5.40629 14.5691C5.48381 12.6001 5.5976 12.055 6.21664 10.6869C9.23409 4.01867 17.5999 2.84864 22.3275 8.43353C23.236 9.50676 24.1103 11.4664 24.4091 13.1C24.5358 13.7915 24.6639 14.3751 24.6942 14.3972C24.7246 14.4192 25.7183 15.0348 26.9027 15.7648L29.0561 17.0922L29.1268 15.1553C29.2236 12.5066 28.8632 10.7748 27.696 8.28434C26.4829 5.69501 25.1485 4.09221 22.9201 2.54744C19.9677 0.500594 15.8085 -0.43355 12.4315 0.191875Z" fill="white"/>
</svg>
