<svg width="22" height="18" viewBox="0 0 22 18" fill="none" xmlns="http://www.w3.org/2000/svg">
<path d="M20.15 0.0749924L0.950023 7.57499C0.312523 7.79999 0.350023 8.69999 0.987523 8.88749L4.62502 9.97499C5.41252 10.2 6.05002 10.8 6.27502 11.5875L7.70002 16.125C7.88752 16.725 8.63752 16.9125 9.08752 16.4625L11.0375 14.475C11.375 14.1375 11.8625 14.1 12.2375 14.3625L16.55 17.5125C17.15 17.9625 18.0125 17.625 18.1625 16.875L21.425 1.19999C21.65 0.412492 20.9 -0.225008 20.15 0.0749924ZM17.75 3.52499L10.025 10.35C9.61252 10.725 9.31252 11.25 9.27502 11.8125C9.20002 12.375 8.41252 12.45 8.22502 11.925L7.88752 10.8C7.62502 9.97499 7.96252 9.11249 8.67502 8.66249L17.4875 3.18749C17.7125 3.03749 17.9375 3.33749 17.75 3.52499Z" fill="#B4B4B4"/>
</svg>
