<svg width="28" height="28" viewBox="0 0 28 28" fill="none" xmlns="http://www.w3.org/2000/svg">
<g clip-path="url(#clip0_1236_762)">
<path fill-rule="evenodd" clip-rule="evenodd" d="M14 0C21.7268 0 28 6.2732 28 14C28 21.7268 21.7268 28 14 28C6.2732 28 0 21.7268 0 14C0 6.2732 6.2732 0 14 0ZM14 5.25C11.6237 5.25 11.3257 5.26006 10.3924 5.30266C9.46105 5.34516 8.82498 5.49309 8.26837 5.70937C7.693 5.93299 7.20502 6.23219 6.71858 6.71863C6.23213 7.20508 5.93294 7.69305 5.70932 8.26842C5.49303 8.82498 5.34516 9.46105 5.30261 10.3924C5.26006 11.3257 5.25 11.6237 5.25 14C5.25 16.3763 5.26006 16.6743 5.30261 17.6076C5.34516 18.539 5.49303 19.175 5.70932 19.7316C5.93294 20.3069 6.23213 20.7949 6.71858 21.2814C7.20502 21.7679 7.693 22.0671 8.26837 22.2907C8.82498 22.5069 9.46105 22.6548 10.3924 22.6973C11.3257 22.7399 11.6237 22.75 14 22.75C16.3763 22.75 16.6743 22.7399 17.6076 22.6973C18.539 22.6548 19.175 22.5069 19.7316 22.2907C20.3069 22.0671 20.7949 21.7679 21.2814 21.2814C21.7679 20.7949 22.0671 20.3069 22.2907 19.7316C22.5069 19.175 22.6548 18.539 22.6973 17.6076C22.7399 16.6743 22.75 16.3763 22.75 14C22.75 11.6237 22.7399 11.3257 22.6973 10.3924C22.6548 9.46105 22.5069 8.82498 22.2907 8.26842C22.0671 7.69305 21.7679 7.20508 21.2814 6.71863C20.7949 6.23219 20.3069 5.93299 19.7316 5.70937C19.175 5.49309 18.539 5.34516 17.6076 5.30266C16.6743 5.26006 16.3763 5.25 14 5.25ZM14 6.82659C16.3364 6.82659 16.6131 6.8355 17.5358 6.87761C18.3889 6.91655 18.8521 7.05906 19.1605 7.17888C19.5689 7.33759 19.8604 7.52724 20.1666 7.83344C20.4728 8.13958 20.6624 8.43112 20.8211 8.83952C20.9409 9.14785 21.0835 9.61111 21.1224 10.4642C21.1645 11.3869 21.1734 11.6636 21.1734 14C21.1734 16.3364 21.1645 16.6131 21.1224 17.5358C21.0835 18.3889 20.9409 18.8521 20.8211 19.1605C20.6624 19.5689 20.4728 19.8604 20.1666 20.1666C19.8604 20.4728 19.5689 20.6624 19.1605 20.8211C18.8521 20.9409 18.3889 21.0835 17.5358 21.1224C16.6132 21.1645 16.3365 21.1734 14 21.1734C11.6635 21.1734 11.3868 21.1645 10.4642 21.1224C9.61111 21.0835 9.14785 20.9409 8.83952 20.8211C8.43106 20.6624 8.13958 20.4728 7.83338 20.1666C7.52719 19.8604 7.33759 19.5689 7.17888 19.1605C7.05906 18.8521 6.91649 18.3889 6.87755 17.5358C6.83545 16.6131 6.82659 16.3364 6.82659 14C6.82659 11.6636 6.83545 11.3869 6.87755 10.4642C6.91649 9.61111 7.05906 9.14785 7.17888 8.83952C7.33759 8.43112 7.52719 8.13958 7.83338 7.83344C8.13958 7.52724 8.43106 7.33759 8.83952 7.17888C9.14785 7.05906 9.61111 6.91655 10.4642 6.87761C11.3869 6.8355 11.6636 6.82659 14 6.82659ZM14 9.50677C11.5184 9.50677 9.50677 11.5184 9.50677 14C9.50677 16.4816 11.5184 18.4932 14 18.4932C16.4816 18.4932 18.4932 16.4816 18.4932 14C18.4932 11.5184 16.4816 9.50677 14 9.50677ZM14 16.9166C12.3892 16.9166 11.0834 15.6108 11.0834 14C11.0834 12.3892 12.3892 11.0834 14 11.0834C15.6108 11.0834 16.9166 12.3892 16.9166 14C16.9166 15.6108 15.6108 16.9166 14 16.9166ZM19.7208 9.32925C19.7208 9.90916 19.2507 10.3792 18.6707 10.3792C18.0909 10.3792 17.6208 9.90916 17.6208 9.32925C17.6208 8.74934 18.0909 8.27925 18.6707 8.27925C19.2507 8.27925 19.7208 8.74934 19.7208 9.32925Z" fill="#1F1F1F"/>
</g>
<defs>
<clipPath id="clip0_1236_762">
<rect width="28" height="28" fill="white"/>
</clipPath>
</defs>
</svg>
