<svg width="30" height="30" viewBox="0 0 30 30" fill="none" xmlns="http://www.w3.org/2000/svg">
<rect width="30" height="30" rx="15" fill="url(#paint0_linear_3730_6295)"/>
<path fill-rule="evenodd" clip-rule="evenodd" d="M13.4018 6.12338C10.0588 6.75097 7.27256 9.42706 6.24378 12.9982C6.05617 13.6495 5.98976 14.3512 6.00126 15.5575C6.02009 17.5031 6.4245 19.0781 7.26853 20.4927L7.77932 21.3485L10.6151 19.5777L13.4509 17.8071L13.4895 21.4035L13.528 25H14.963H16.3981V21.4496C16.3981 18.9726 16.4458 17.8992 16.5559 17.8992C16.6426 17.8992 17.9139 18.6572 19.381 19.5838C21.4424 20.8856 22.1004 21.2345 22.2781 21.1196C22.5164 20.9658 23.6851 18.7002 23.576 18.6039C23.5421 18.5739 21.597 17.3443 19.2536 15.8714L14.9929 13.1935L12.1203 15.0177C10.5403 16.0208 9.16692 16.8416 9.0683 16.8416C8.93331 16.8416 8.90312 16.4768 8.9461 15.3686C8.99527 14.1024 9.06744 13.7519 9.46006 12.8722C11.3738 8.58419 16.6797 7.8318 19.6782 11.4231C20.2544 12.1133 20.8089 13.3734 20.9984 14.4239C21.0787 14.8685 21.1599 15.2438 21.1792 15.258C21.1985 15.2722 21.8287 15.6681 22.5799 16.1375L23.9456 16.9911L23.9905 15.7456C24.0519 14.0423 23.8233 12.9287 23.0831 11.3272C22.3136 9.66215 21.4673 8.63147 20.054 7.63812C18.1815 6.3219 15.5435 5.72121 13.4018 6.12338Z" fill="white"/>
<defs>
<linearGradient id="paint0_linear_3730_6295" x1="18.7668" y1="2.94354" x2="12.4849" y2="19.4456" gradientUnits="userSpaceOnUse">
<stop stop-color="#7A1DF2"/>
<stop offset="1" stop-color="#FF0083"/>
</linearGradient>
</defs>
</svg>
